<?xml version="1.0" standalone="no"?><!DOCTYPE svg PUBLIC "-//W3C//DTD SVG 1.1//EN" "http://www.w3.org/Graphics/SVG/1.1/DTD/svg11.dtd"><svg t="1696660789727" class="icon" viewBox="0 0 1024 1024" version="1.1" xmlns="http://www.w3.org/2000/svg" p-id="7743" xmlns:xlink="http://www.w3.org/1999/xlink" width="200" height="200"><path d="M911.00757269 112.99242731H112.99242731c-34.20041321 0-57.00034468 22.80096346-57.00034467 57.00137667 0 28.50068834 22.79993147 51.3006198 51.30061981 57.00137667h5.69972486c0-34.20041321 22.80096346-57.00137667 57.00137667-57.00137667h684.01239204c34.20041321 0 57.00137667 22.80096346 57.00137667 57.00137667 34.20041321 0 57.00034468-22.80096346 57.00034467-57.00137667 0-28.49965634-22.79993147-51.3006198-51.30061981-57.00137667h-5.69972486z m-199.50481834 285.00688335c17.1002066 0 28.50172033 11.39841774 28.50172033 28.49965633 0 11.39944973-11.40151373 22.79993147-22.80096347 28.49965634H312.49724565c-17.1002066 0-28.50172033-11.39944973-28.50172033-28.49965634 0-11.40048174 11.40151373-22.80096346 22.80096347-28.50068833h404.70626556z m0 171.00206601c17.1002066 0 28.50172033 11.39944973 28.50172033 28.49965634 0 11.40048174-11.40151373 22.80096346-22.80096347 28.50068833H312.49724565c-17.1002066 0-28.50172033-11.39944973-28.50172033-28.50068833 0-11.39944973 11.40151373-22.79993147 22.80096347-28.49965634h404.70626556z m142.50344167-342.00619602H169.99380398v587.1098453l5.70075686-5.69972487c22.79993147-17.1002066 51.3006198-17.1002066 74.10055128 0l5.70075686 5.69972487 57.00137667 62.70213354 56.99931267-62.70213354c22.80096346-22.79993147 57.00240867-28.50068834 79.80234014-5.69972487l5.69972487 5.69972487L512 876.80715949l57.00137667-62.70213354c22.79993147-22.79993147 57.00034468-28.50068834 79.80130814-5.69972487l5.70075687 5.69972487 56.99931267 62.70213354 57.00137667-62.70213354c22.80096346-22.79993147 57.00137667-28.50068834 79.80130814-5.69972487l5.70075686 5.69972487V226.99518065z m57.00137667-171.00206601c62.70006954 0 114.00172134 51.3006198 114.00172134 114.00068934s-51.3006198 114.00172134-114.00172134 114.00172134v684.01239204l-102.60123961-114.00172134-102.6022716 114.00172134-102.60123961-114.00172134L512 968.00791736l-102.60123961-114.00172134-102.6022716 114.00172134-102.60123961-114.00172134-91.20282187 114.00172134V283.99552532c-62.70006954 0-114.00172134-51.3006198-114.00172134-114.00172134S50.29132578 55.99208264 112.99242731 55.99208264h798.01514538z" p-id="7744"></path></svg>