<?xml version="1.0" standalone="no"?><!DOCTYPE svg PUBLIC "-//W3C//DTD SVG 1.1//EN" "http://www.w3.org/Graphics/SVG/1.1/DTD/svg11.dtd"><svg t="1695089454873" class="icon" viewBox="0 0 1024 1024" version="1.1" xmlns="http://www.w3.org/2000/svg" p-id="5426" xmlns:xlink="http://www.w3.org/1999/xlink" width="200" height="200"><path d="M672 264.5H228.1c-19.9 0-36-16.1-36-36s16.1-36 36-36H672c19.9 0 36 16.1 36 36s-16.1 36-36 36z m-443.9 120c-19.9 0-36 16.1-36 36s16.1 36 36 36h184c19.9 0 36-16.1 36-36s-16.1-36-36-36h-184z m595 285.4c-11.9-11.9-31.1-11.9-43 0L641.6 801.6l-77.7-77.7c-11.9-11.9-31.1-11.9-43 0-11.9 11.9-11.9 31.1 0 43l99.2 99.2c5.9 5.9 13.7 8.9 21.5 8.9s15.6-3 21.5-8.9l160-153.2c11.9-11.9 11.9-31.2 0-43zM960 736c0 159.1-128.9 288-288 288S384 895.1 384 736s128.9-288 288-288 288 128.9 288 288z m-72 0c0-57.7-22.5-111.9-63.3-152.7-40.8-40.8-95-63.3-152.7-63.3s-111.9 22.5-152.7 63.3c-40.8 40.8-63.3 95-63.3 152.7s22.5 111.9 63.3 152.7c40.8 40.8 95 63.3 152.7 63.3s111.9-22.5 152.7-63.3c40.8-40.8 63.3-95 63.3-152.7zM348 952H136V72h624v276c0 19.9 16.1 36 36 36s36-16.1 36-36V64c0-35.3-28.7-64-64-64H128C92.7 0 64 28.7 64 64v896c0 35.3 28.7 64 64 64h220c19.9 0 36-16.1 36-36s-16.1-36-36-36z" fill="#707070" p-id="5427"></path></svg>