<?xml version="1.0" standalone="no"?><!DOCTYPE svg PUBLIC "-//W3C//DTD SVG 1.1//EN" "http://www.w3.org/Graphics/SVG/1.1/DTD/svg11.dtd"><svg t="1695089641766" class="icon" viewBox="0 0 1024 1024" version="1.1" xmlns="http://www.w3.org/2000/svg" p-id="22663" xmlns:xlink="http://www.w3.org/1999/xlink" width="200" height="200"><path d="M640 174.933333H384c-25.6 0-42.666667-17.066667-42.666667-42.666666s17.066667-42.666667 42.666667-42.666667h256c25.6 0 42.666667 17.066667 42.666667 42.666667 0 21.333333-17.066667 42.666667-42.666667 42.666666z" p-id="22664" fill="#707070"></path><path d="M789.333333 452.266667c25.6 0 46.933333 8.533333 64 17.066666V217.6c0-46.933333-38.4-85.333333-85.333333-85.333333h-42.666667c0 46.933333-38.4 85.333333-85.333333 85.333333H384c-46.933333 0-85.333333-38.4-85.333333-85.333333H256c-46.933333 0-85.333333 38.4-85.333333 85.333333v640c0 46.933333 38.4 85.333333 85.333333 85.333333h512c42.666667 0 76.8-29.866667 85.333333-68.266666h-221.866666c-38.4 0-72.533333-34.133333-72.533334-72.533334v-55.466666c0-59.733333 46.933333-106.666667 106.666667-106.666667h17.066667c-12.8-17.066667-17.066667-38.4-17.066667-64-4.266667-68.266667 51.2-123.733333 123.733333-123.733333z m-298.666666 226.133333h-213.333334c-12.8 0-21.333333-8.533333-21.333333-21.333333s8.533333-21.333333 21.333333-21.333334h213.333334c12.8 0 21.333333 8.533333 21.333333 21.333334 0 8.533333-8.533333 21.333333-21.333333 21.333333z m0-119.466667h-213.333334c-12.8 0-21.333333-8.533333-21.333333-21.333333s8.533333-21.333333 21.333333-21.333333h213.333334c12.8 0 21.333333 8.533333 21.333333 21.333333 0 8.533333-8.533333 21.333333-21.333333 21.333333z m0-128h-213.333334c-12.8 0-21.333333-12.8-21.333333-21.333333 0-12.8 8.533333-21.333333 21.333333-21.333333h213.333334c12.8 0 21.333333 8.533333 21.333333 21.333333 0 8.533333-8.533333 21.333333-21.333333 21.333333z" p-id="22665" fill="#707070"></path><path d="M917.333333 682.666667H853.333333l-8.533333-38.4c17.066667-17.066667 29.866667-38.4 29.866667-64 0-46.933333-38.4-85.333333-85.333334-85.333334s-85.333333 38.4-85.333333 85.333334c0 25.6 12.8 51.2 29.866667 64l-4.266667 38.4h-64c-34.133333 0-64 29.866667-64 64v55.466666c0 17.066667 12.8 29.866667 29.866667 29.866667h320c17.066667 0 29.866667-12.8 29.866666-29.866667v-55.466666c0-34.133333-29.866667-64-64-64z" p-id="22666" fill="#707070"></path></svg>