<?xml version="1.0" standalone="no"?><!DOCTYPE svg PUBLIC "-//W3C//DTD SVG 1.1//EN" "http://www.w3.org/Graphics/SVG/1.1/DTD/svg11.dtd"><svg t="1695089414417" class="icon" viewBox="0 0 1024 1024" version="1.1" xmlns="http://www.w3.org/2000/svg" p-id="4041" xmlns:xlink="http://www.w3.org/1999/xlink" width="200" height="200"><path d="M451.520002 782.271976c0-118.719996 75.071998-225.599993 186.751994-265.727992 11.968-4.224 20.095999-14.784 21.631999-27.327999 1.344-12.48-4.416-24.703999-15.04-31.423999-57.279998-36.479999-118.975996-54.911998-183.295994-54.911998-231.487993 0-419.839987 247.295992-419.839987 551.295983 0 9.92 0.192 20.031999 0.64 29.887999 0.768 17.535999 15.296 31.487999 32.895999 31.487999l415.295987 0c12.672 0 24.319999-7.36 29.759999-18.943999 5.44-11.52 3.712-25.151999-4.416-35.007999-41.535999-50.239998-64.383998-113.983996-64.383998-179.327994zM732.543993 525.247984c-137.727996 0-249.599992 111.615997-249.663992 249.279992s112.063996 249.535992 250.047992 249.471992c137.279996-0.064 249.151992-111.807997 249.343992-249.151992 0.32-137.663996-111.807997-249.599992-249.727992-249.599992zM839.42399 851.583973l0 0 0-0.192c21.887999 0 32.895999 8.256 32.895999 24.767999 0.896 7.744-1.344 13.504-6.4 17.023999-5.12 3.52-11.648 5.312-19.391999 5.312l-82.239997 0 0 23.423999c0 6.976-3.008 13.952-8.768 20.479999-6.08 6.656-13.696 9.6-22.975999 8.896-9.344 0-17.151999-2.112-23.487999-6.528-6.272-4.224-9.728-11.968-10.496-22.847999l0-23.423999-79.871998 0c-7.872 0-14.272-2.112-19.391999-6.592-5.12-4.16-7.232-9.472-6.528-15.744 0-7.04 2.624-12.672 7.552-17.151999 5.12-4.224 11.328-6.528 18.239999-6.528l79.871998 0 0-40.959999-79.743998 0c-7.872 0-14.144-2.368-18.751999-6.976-4.736-4.736-7.104-10.176-7.104-16.511999s2.624-12.032 7.616-17.535999c5.12-5.504 11.264-8.32 18.239999-8.32l79.871998 0 1.152-24.639999c-14.144-14.144-27.007999-27.519999-38.655999-39.871999-10.112-11.008-19.583999-21.247999-28.031999-30.655999l-17.599999-16.511999c-3.904-4.608-7.488-11.072-10.624-19.391999-3.392-8.128-1.728-16.575999 4.544-25.215999 6.976-7.744 15.616-9.856 25.727999-6.4 10.24 3.456 18.495999 8 24.767999 13.504 3.136 3.904 8.64 9.728 16.383999 17.471999l24.831999 24.767999 31.551999 31.615999c13.376-12.416 25.471999-23.871999 36.351999-33.919999 9.472-8.704 18.879999-17.087999 28.223999-25.343999s16.127999-13.952 20.031999-17.087999c6.976-6.272 14.848-9.216 23.487999-9.216s15.616 3.648 21.119999 10.496c10.112 11.904 6.272 25.471999-11.776 41.279999-4.736 3.904-11.776 10.752-21.119999 20.479999-9.472 9.728-18.879999 19.455999-28.223999 28.735999-11.008 11.776-23.103999 23.871999-36.351999 36.351999l0 22.399999 76.351998 0c10.88 0 19.007999 2.496 23.999999 7.616 5.12 5.056 7.616 10.752 7.616 17.023999 0 7.104-2.24 13.12-6.976 18.239999-4.736 4.992-12.416 7.168-23.487999 6.528l-76.287998 1.28-1.216 39.871999 75.071998 0zM666.623995 189.311994c0 104.543997-84.767997 189.311994-189.311994 189.311994s-189.311994-84.767997-189.311994-189.311994c0-104.543997 84.767997-189.311994 189.311994-189.311994s189.311994 84.767997 189.311994 189.311994z" fill="#707070" p-id="4042"></path></svg>