<?xml version="1.0" standalone="no"?><!DOCTYPE svg PUBLIC "-//W3C//DTD SVG 1.1//EN" "http://www.w3.org/Graphics/SVG/1.1/DTD/svg11.dtd"><svg t="1676344566582" class="icon" viewBox="0 0 1024 1024" version="1.1" xmlns="http://www.w3.org/2000/svg" p-id="1451" xmlns:xlink="http://www.w3.org/1999/xlink" width="200" height="200"><path d="M791.272727 906.891636V232.727273a46.545455 46.545455 0 0 1 93.090909 0v742.865454a46.545455 46.545455 0 0 1-63.767272 43.194182l-166.167273-66.280727-98.676364 52.503273a93.090909 93.090909 0 0 1-87.505454 0l-98.676364-52.503273-166.167273 66.280727A46.545455 46.545455 0 0 1 139.636364 975.546182V46.545455A46.545455 46.545455 0 0 1 206.894545 4.887273l162.117819 80.616727L460.567273 24.808727a93.090909 93.090909 0 0 1 102.865454 0l91.554909 60.695273L817.105455 4.887273a46.545455 46.545455 0 0 1 41.425454 83.316363l-162.117818 80.616728a93.090909 93.090909 0 0 1-92.904727-5.725091L512 102.4 420.491636 163.095273a93.090909 93.090909 0 0 1-92.904727 5.725091L232.727273 121.669818v785.221818l102.353454-40.866909a93.090909 93.090909 0 0 1 78.196364 4.282182L512 922.856727l98.676364-52.549818a93.090909 93.090909 0 0 1 78.242909-4.282182l102.353454 40.866909z" fill="#707070" p-id="1452"></path><path d="M372.363636 558.545455a46.545455 46.545455 0 0 1 0-93.09091h279.226182a46.545455 46.545455 0 0 1 0 93.09091H372.363636zM372.363636 384a46.545455 46.545455 0 1 1 0-93.090909h279.226182a46.545455 46.545455 0 0 1 0 93.090909H372.363636zM372.363636 744.727273a46.545455 46.545455 0 0 1 0-93.090909h279.226182a46.545455 46.545455 0 0 1 0 93.090909H372.363636z" fill="#707070" p-id="1453"></path></svg>