<?xml version="1.0" standalone="no"?><!DOCTYPE svg PUBLIC "-//W3C//DTD SVG 1.1//EN" "http://www.w3.org/Graphics/SVG/1.1/DTD/svg11.dtd"><svg t="1694050360145" class="icon" viewBox="0 0 1024 1024" version="1.1" xmlns="http://www.w3.org/2000/svg" p-id="4878" xmlns:xlink="http://www.w3.org/1999/xlink" width="200" height="200"><path d="M768 1024c-143.36 0-256-112.64-256-256s112.64-256 256-256 256 112.64 256 256-112.64 256-256 256z m0-455.68c-107.52 0-199.68 87.04-199.68 199.68 0 107.52 87.04 199.68 199.68 199.68 107.52 0 199.68-87.04 199.68-199.68s-92.16-199.68-199.68-199.68zM199.68 737.28h256c0 20.48 0 35.84 5.12 56.32H199.68c-15.36 0-30.72-10.24-30.72-30.72 0-10.24 15.36-25.6 30.72-25.6z m0-112.64c-15.36 0-30.72-10.24-30.72-30.72 0-15.36 10.24-30.72 30.72-30.72H512c-15.36 15.36-25.6 35.84-35.84 56.32H199.68z m0-337.92c-15.36 0-30.72-15.36-30.72-30.72s10.24-30.72 30.72-30.72h112.64c15.36 0 30.72 10.24 30.72 30.72 0 15.36-10.24 30.72-30.72 30.72H199.68z m424.96 138.24c0 15.36-10.24 30.72-30.72 30.72H199.68c-15.36 0-30.72-10.24-30.72-30.72 0-15.36 10.24-30.72 30.72-30.72h399.36c15.36 5.12 25.6 15.36 25.6 30.72z m112.64-81.92H455.68V56.32H112.64c-15.36 0-30.72 5.12-40.96 15.36-10.24 15.36-15.36 25.6-15.36 40.96v793.6c0 30.72 25.6 56.32 56.32 56.32h424.96c15.36 20.48 35.84 40.96 56.32 56.32H112.64C51.2 1024 0 972.8 0 911.36V112.64C0 51.2 51.2 0 112.64 0h378.88l302.08 296.96V460.8c-20.48-5.12-35.84-5.12-56.32-5.12V343.04zM512 107.52v174.08h179.2L512 107.52z m281.6 803.84h-56.32v-168.96h56.32v168.96z m0-230.4h-56.32v-56.32h56.32v56.32z m-56.32 174.08" fill="#8a8a8a" p-id="4879"></path></svg>