<?xml version="1.0" standalone="no"?><!DOCTYPE svg PUBLIC "-//W3C//DTD SVG 1.1//EN" "http://www.w3.org/Graphics/SVG/1.1/DTD/svg11.dtd"><svg t="1693185492437" class="icon" viewBox="0 0 1024 1024" version="1.1" xmlns="http://www.w3.org/2000/svg" p-id="2389" xmlns:xlink="http://www.w3.org/1999/xlink" width="200" height="200"><path d="M512 960c-210.95 0-395.36-149.68-438.48-355.89-2.98-14.24 6.15-28.21 20.4-31.18 14.22-2.95 28.21 6.15 31.18 20.4C163.15 775.25 325.86 907.29 512 907.29s348.85-132.05 386.89-313.97c2.98-14.25 16.91-23.36 31.18-20.4 14.24 2.98 23.38 16.94 20.4 31.18C907.36 810.32 722.96 960 512 960zM927.47 466.96c-12.61 0-23.75-9.08-25.95-21.93C869.05 254.79 705.23 116.71 512 116.71S154.95 254.79 122.48 445.03c-2.45 14.35-16.07 23.94-30.41 21.55-14.35-2.45-23.99-16.07-21.55-30.41C107.33 220.52 292.99 64 512 64s404.67 156.52 441.48 372.16c2.44 14.35-7.2 27.96-21.55 30.41-1.49 0.26-2.99 0.39-4.46 0.39z" fill="#707070" p-id="2390"></path><path d="M96.52 466.96c-9.11 0-17.96-4.73-22.85-13.18-7.28-12.6-2.96-28.72 9.64-36l131.76-76.08c12.6-7.28 28.72-2.96 36 9.64 7.28 12.6 2.96 28.72-9.64 36l-131.76 76.08c-4.15 2.4-8.68 3.54-13.15 3.54zM792.94 701.14c-9.11 0-17.97-4.72-22.85-13.18-7.28-12.61-2.96-28.72 9.64-36l131.76-76.07c12.61-7.29 28.73-2.97 36 9.64 7.28 12.61 2.96 28.72-9.64 36L806.09 697.6a26.091 26.091 0 0 1-13.15 3.54z" fill="#707070" p-id="2391"></path><path d="M514.27 445.01c-6.74 0-13.49-2.57-18.63-7.72L351.81 293.46c-10.29-10.29-10.29-26.98 0-37.26 10.28-10.29 26.98-10.29 37.26 0L532.9 400.03c10.29 10.29 10.29 26.98 0 37.26-5.14 5.15-11.89 7.72-18.63 7.72z" fill="#707070" p-id="2392"></path><path d="M514.27 445.01c-6.74 0-13.49-2.57-18.63-7.72-10.29-10.29-10.29-26.98 0-37.26L639.47 256.2c10.28-10.29 26.98-10.29 37.26 0 10.29 10.29 10.29 26.98 0 37.26L532.9 437.29c-5.14 5.15-11.89 7.72-18.63 7.72z" fill="#707070" p-id="2393"></path><path d="M667.79 445.01H356.21c-14.55 0-26.35-11.8-26.35-26.35s11.8-26.35 26.35-26.35h311.58c14.55 0 26.35 11.8 26.35 26.35s-11.8 26.35-26.35 26.35zM667.79 565.46H356.21c-14.55 0-26.35-11.8-26.35-26.35s11.8-26.35 26.35-26.35h311.58c14.55 0 26.35 11.8 26.35 26.35s-11.8 26.35-26.35 26.35z" fill="#707070" p-id="2394"></path><path d="M514.27 775.53c-14.55 0-26.35-11.8-26.35-26.35V417.7c0-14.55 11.8-26.35 26.35-26.35s26.35 11.8 26.35 26.35v331.48c0 14.55-11.8 26.35-26.35 26.35z" fill="#707070" p-id="2395"></path></svg>