<?xml version="1.0" standalone="no"?><!DOCTYPE svg PUBLIC "-//W3C//DTD SVG 1.1//EN" "http://www.w3.org/Graphics/SVG/1.1/DTD/svg11.dtd"><svg t="1675906669837" class="icon" viewBox="0 0 1024 1024" version="1.1" xmlns="http://www.w3.org/2000/svg" p-id="15306" xmlns:xlink="http://www.w3.org/1999/xlink" width="200" height="200"><path d="M112.466 89.656h313.606v153.416H112.466z" fill="#FFD452" p-id="15307"></path><path d="M501.948 306.592h173.678v16.044h-173.678zM112.466 392.902h225.472v16.044H112.466zM112.466 446.712h225.472v16.044H112.466zM104.444 539.73v279.804h578.828V539.73H104.444z m562.784 263.76H120.49V555.774h546.738v247.716z" fill="#4A555F" p-id="15308"></path><path d="M139.208 574.494h509.3v210.278H139.208z" fill="#DFDFDF" p-id="15309"></path><path d="M478.316 893.422h217.972v16.044H478.316zM255.946 547.752h16.044v263.76h-16.044zM563.222 547.752h16.044v263.76h-16.044zM502.284 547.752h16.044v263.76h-16.044zM165.306 119.456h16.044v93.818h-16.044zM262.192 122.598v58.044l-36.824-62.132-14.922 4.088v87.316h16.044V151.87l36.826 62.132 14.922-4.088V122.598zM357.666 119.886l-23.842 66.316-23.848-66.316-15.094 5.426 31.394 87.314h15.094l31.388-87.314z" fill="#4A555F" p-id="15310"></path><path d="M792.02 268.528l4.116-2.292V43.588c0-15.188 12.352-27.544 27.54-27.544V0H106.122C53.424 0 10.55 42.874 10.55 95.572v884.844c0 24.03 19.534 43.584 43.538 43.584h769.588v-16.044c-15.188 0-27.54-12.352-27.54-27.54V512.29l-4.116-2.292c-43.776-24.426-70.972-70.68-70.972-120.708 0-50.062 27.196-96.334 70.972-120.762z m-87.016 120.762c0 54.254 28.652 104.528 75.088 132.338v458.788a43.37 43.37 0 0 0 9.83 27.54H54.086c-15.162 0-27.492-12.352-27.492-27.54V95.572c0-43.85 35.676-79.528 79.526-79.528h683.8a43.38 43.38 0 0 0-9.83 27.544v213.308c-46.434 27.812-75.086 78.106-75.086 132.394z" fill="#4A555F" p-id="15311"></path><path d="M780.066 843.24v137.196c0 24.02 19.57 43.564 43.62 43.564 24.02 0 43.562-19.544 43.562-43.564V843.24h-87.182z m71.14 137.196c0 15.172-12.346 27.52-27.518 27.52-15.204 0-27.576-12.346-27.576-27.52v-121.152h55.094v121.152zM823.634 0c-24.024 0-43.568 19.544-43.568 43.566V180.76h87.184V43.566C867.25 19.544 847.686 0 823.634 0z m27.572 164.714h-55.094V43.566c0-15.174 12.346-27.522 27.524-27.522 15.204 0 27.57 12.346 27.57 27.522v121.148zM112.466 596.7h562.784v16.044H112.466z" fill="#4A555F" p-id="15312"></path><path d="M859.226 277.012c-61.9 0-112.258 50.36-112.258 112.26 0 61.902 50.358 112.26 112.258 112.26s112.262-50.36 112.262-112.26c0-61.9-50.362-112.26-112.262-112.26z" fill="#FFD452" p-id="15313"></path><path d="M859.228 235.05c-85.036 0-154.218 69.186-154.218 154.224 0 85.036 69.18 154.216 154.218 154.216 85.038 0 154.224-69.18 154.224-154.216-0.002-85.038-69.188-154.224-154.224-154.224z m0 292.396c-76.19 0-138.174-61.984-138.174-138.172 0-76.19 61.984-138.178 138.174-138.178s138.178 61.988 138.178 138.178c0 76.188-61.99 138.172-138.178 138.172z" fill="#4A555F" p-id="15314"></path><path d="M759.174 418.542l-15.396 4.512a120.072 120.072 0 0 0 6 16.096l14.592-6.674a103.56 103.56 0 0 1-5.196-13.934z m12.462-85.732l-13.464-8.722a120.72 120.72 0 0 0-8.278 15.052l14.572 6.706a104.774 104.774 0 0 1 7.17-13.036z m-12.398 26.966l-15.386-4.544a119.83 119.83 0 0 0-3.666 16.78l15.876 2.298a104.048 104.048 0 0 1 3.176-14.534z m31.91-49.382l-10.498-12.126a121.27 121.27 0 0 0-12.154 12.112l12.106 10.53a106.614 106.614 0 0 1 10.546-10.516z m-36.156 78.754l-16.044 0.126c0 5.682 0.402 11.4 1.196 16.99l15.888-2.256a105.366 105.366 0 0 1-1.04-14.86z m183.246-90.512a120.482 120.482 0 0 0-13.716-10.346l-8.722 13.464a104.156 104.156 0 0 1 11.876 8.968l10.562-12.086z m25.23 91.008l16.044-0.36a120.32 120.32 0 0 0-1.16-16.738l-15.888 2.224c0.67 4.784 1.01 9.662 1.004 14.874z m-53.992-109.662a119.716 119.716 0 0 0-16.086-6.058l-4.554 15.386c4.738 1.4 9.416 3.166 13.914 5.244l6.726-14.572z m49.876 80.242l15.408-4.48a119.78 119.78 0 0 0-5.97-16.108l-14.602 6.644a104.532 104.532 0 0 1 5.164 13.944z m-201.336 93.984a121.114 121.114 0 0 0 10.288 13.736l12.128-10.508a104.176 104.176 0 0 1-8.92-11.908l-13.496 8.68z m189.058-120.986l13.506-8.66a122.184 122.184 0 0 0-10.252-13.756l-12.158 10.476a106.02 106.02 0 0 1 8.904 11.94z m-44.952 151.054l6.622 14.614a120.724 120.724 0 0 0 15.084-8.19l-8.638-13.516a105.134 105.134 0 0 1-13.068 7.092z m25.012-15.978l10.466 12.158a121.46 121.46 0 0 0 12.18-12.084l-12.076-10.56a105.484 105.484 0 0 1-10.57 10.486z m-53.518 24.224l2.204 15.888a118.55 118.55 0 0 0 16.808-3.578l-4.46-15.408a104.42 104.42 0 0 1-14.552 3.098z m85.538-73.536l15.376 4.584a119.084 119.084 0 0 0 3.708-16.776l-15.878-2.33a102.442 102.442 0 0 1-3.206 14.522z m-12.466 26.938l13.454 8.744a121.308 121.308 0 0 0 8.31-15.032l-14.562-6.738a104.734 104.734 0 0 1-7.202 13.026z m-104.582 62.412c5.63 0.81 11.392 1.216 17.12 1.216v-16.044c-4.972 0-9.964-0.356-14.842-1.054l-2.278 15.882z m34.514-238.094c-5.62-0.82-11.38-1.244-17.126-1.254l-0.032 16.044c4.982 0.01 9.976 0.376 14.838 1.086l2.32-15.876z m-67.39 228.426a121.698 121.698 0 0 0 16.096 6.022l4.522-15.396a104.404 104.404 0 0 1-13.944-5.218l-6.674 14.592z m0.256-218.906a119.992 119.992 0 0 0-15.078 8.226l8.67 13.496a104.088 104.088 0 0 1 13.052-7.118l-6.644-14.604z m-29.05 200.32a122.014 122.014 0 0 0 13.72 10.316l8.712-13.476a105.218 105.218 0 0 1-11.902-8.946l-10.53 12.106z m61.932-209.918a120.124 120.124 0 0 0-16.792 3.62l4.492 15.396a104.942 104.942 0 0 1 14.546-3.128l-2.246-15.888zM921.88 347.804l-87.842 75.804-36.654-42.054-12.096 10.54 47.142 54.086 99.926-86.228z" fill="#4A555F" p-id="15315"></path></svg>