<?xml version="1.0" standalone="no"?><!DOCTYPE svg PUBLIC "-//W3C//DTD SVG 1.1//EN" "http://www.w3.org/Graphics/SVG/1.1/DTD/svg11.dtd"><svg t="1693811923560" class="icon" viewBox="0 0 1024 1024" version="1.1" xmlns="http://www.w3.org/2000/svg" p-id="4407" xmlns:xlink="http://www.w3.org/1999/xlink" width="200" height="200"><path d="M768 96c34.992 0 63.4256 28.0832 63.992 62.9424L832 160v473.9296c0 13.256-10.7456 24-24 24-13.088 0-23.728-10.4736-23.9952-23.4976l-0.0048-0.5024V160c0-8.688-6.9232-15.7568-15.552-15.9936L768 144H160c-8.688 0-15.7568 6.9232-15.9936 15.552L144 160v704c0 8.688 6.9232 15.7568 15.552 15.9936l0.448 0.0064h328.56c13.256 0 24 10.7456 24 24 0 13.088-10.4736 23.728-23.4976 23.9952l-0.5024 0.0048H160c-34.992 0-63.4256-28.0832-63.992-62.9424L96 864V160c0-34.992 28.0832-63.4256 62.9424-63.992L160 96h608z m152.08 586.0592c9.3744 9.3728 9.3744 24.5696 0 33.9424L716.152 919.9312c-9.3712 9.3728-24.568 9.3728-33.9408 0l-131.7408-131.7408c-9.3728-9.3728-9.3728-24.5696 0-33.9408 9.3728-9.3728 24.568-9.3728 33.9408 0l114.7712 114.7696 186.96-186.96c9.3712-9.3712 24.568-9.3712 33.9408 0zM504.8912 237.5392c9.3664 9.368 9.3664 24.5552 0 33.9216L406.7616 369.6 488 369.6c13.2544 0 24 10.7456 24 24 0 13.2544-10.7456 24-24 24h-80v57.6h80c13.2544 0 24 10.7456 24 24 0 13.2544-10.7456 24-24 24h-80v112c0 13.2544-10.7456 24-24 24-13.2544 0-24-10.7456-24-24v-112h-80c-13.2544 0-24-10.7456-24-24 0-13.2544 10.7456-24 24-24h80v-57.6h-80c-13.2544 0-24-10.7456-24-24 0-13.2544 10.7456-24 24-24h81.064l-98.1248-98.1392c-9.3664-9.3664-9.3664-24.5536 0-33.9216s24.552-9.368 33.9184 0l87.056 87.0656 87.056-87.0656c9.368-9.368 24.5536-9.368 33.92 0zM712 611.2c13.2544 0 24 10.7456 24 24 0 13.2544-10.7456 24-24 24H504c-13.2544 0-24-10.7456-24-24 0-13.2544 10.7456-24 24-24h208z m0-136c13.2544 0 24 10.7456 24 24 0 13.2544-10.7456 24-24 24h-128c-13.2544 0-24-10.7456-24-24 0-13.2544 10.7456-24 24-24h128z" fill="#8a8a8a" p-id="4408"></path></svg>