<?xml version="1.0" standalone="no"?><!DOCTYPE svg PUBLIC "-//W3C//DTD SVG 1.1//EN" "http://www.w3.org/Graphics/SVG/1.1/DTD/svg11.dtd"><svg t="1693811893512" class="icon" viewBox="0 0 1300 1024" version="1.1" xmlns="http://www.w3.org/2000/svg" p-id="4175" xmlns:xlink="http://www.w3.org/1999/xlink" width="253.90625" height="200"><path d="M784.014714 99.204787l10.903312 18.428134-21.294732-2.559463-14.179425 16.124617-4.095141-21.089976-19.707865-8.497417 18.735269-10.442609 2.04757-21.345922 15.715103 14.58894 20.936408-4.658223-9.060499 19.451919zM1067.142514 642.37403l-18.428134 10.903312 2.559463-21.294732-16.073428-14.179425 21.038786-4.14633 8.497417-19.656676 10.442609 18.735269 21.345922 1.996381-14.588939 15.715103 4.658222 20.936408-19.451918-9.00931z" fill="#8a8a8a" p-id="4176"></path><path d="M1067.142514 642.37403l-18.428134 10.903312 2.559463-21.294732-16.073428-14.179425 21.038786-4.14633 8.497417-19.656676 10.442609 18.735269 21.345922 1.996381-14.588939 15.715103 4.658222 20.936408-19.451918-9.00931zM571.886418 100.023815l-17.404348-12.541369 20.526893-6.1939 6.501036-20.424515 12.234233 17.609105 21.448301-0.153567-12.950883 17.097213 6.756982 20.373325-20.270947-7.012928-17.250781 12.694936 0.409514-21.4483zM991.382408 784.373039l-21.192354 3.480869 10.135474-18.888837-9.828338-19.093594 21.089975 3.788005 15.100832-15.254399 2.917788 21.243543 19.144783 9.623581-19.298351 9.367634-3.224923 21.192354-14.844886-15.459156zM427.993407 156.792705l-20.78284-5.323683 16.892456-13.258019-1.330921-21.397111 17.762674 11.927098 19.963811-7.883146-5.886765 20.629272 13.667533 16.534131-21.397111 0.819028-11.517584 18.069809-7.371253-20.117379zM854.19519 896.42633l-20.731651-5.323683 16.841267-13.258019-1.330921-21.397111 17.813863 11.978287 19.912622-7.934335-5.835575 20.629272 13.667532 16.534131-21.4483 0.819028-11.517584 18.069809-7.371253-20.117379zM562.416405 923.607827l10.903313 18.428134-21.294733-2.559463-14.179425 16.073428-4.14633-21.038786-19.656676-8.497418 18.735269-10.442609 1.996381-21.345921 15.715103 14.588939 20.936408-4.658223-9.00931 19.451919zM242.790663 420.724532l-18.479324 10.954502 2.559464-21.294733-16.073428-14.230614 21.038786-4.095141 8.497417-19.707865 10.442609 18.735269 21.345922 2.047571-14.588939 15.715103 4.709412 20.936407-19.451919-9.060499z" fill="#8a8a8a" p-id="4177"></path><path d="M242.790663 420.724532l-18.479324 10.954502 2.559464-21.294733-16.073428-14.230614 21.038786-4.095141 8.497417-19.707865 10.442609 18.735269 21.345922 2.047571-14.588939 15.715103 4.709412 20.936407-19.451919-9.060499zM700.780976 943.878774l-17.404348-12.490179 20.475704-6.24509 6.552225-20.424515 12.234233 17.609106 21.448301-0.102379-12.950883 17.097213 6.756982 20.322136-20.270947-7.012928-17.30197 12.694936 0.460703-21.4483zM303.552315 278.827902l-21.192354 3.42968 10.135473-18.888837-9.828338-19.042405 21.089976 3.788006 15.100832-15.2544 2.917787 21.243543 19.144784 9.623581-19.298351 9.316445-3.224924 21.243544-14.844885-15.459157z" fill="#8a8a8a" p-id="4178"></path><path d="M407.620081 90.604991a486.861057 486.861057 0 0 1 504.521352 11.77353l25.031548-14.435371a511.892605 511.892605 0 0 0-797.528678 459.57718l25.031548-14.384182A486.758678 486.758678 0 0 1 407.620081 90.604991zM893.201406 933.333787a486.861057 486.861057 0 0 1-504.521351-11.619963l-24.980359 14.384183A511.892605 511.892605 0 0 0 1161.177185 476.572015L1136.401583 490.956197a486.912246 486.912246 0 0 1-243.200177 442.37759z" fill="#8a8a8a" p-id="4179"></path><path d="M813.909242 795.839433a326.587482 326.587482 0 0 1-258.147441 29.536203l-29.792149 17.199592a353.205897 353.205897 0 0 0 472.73282-272.429245l-29.792149 17.148403A326.843428 326.843428 0 0 1 813.909242 795.839433zM486.861057 228.099345a326.587482 326.587482 0 0 1 258.14744-29.536204l29.79215-17.199591A353.205897 353.205897 0 0 0 302.016637 453.792794l29.843339-17.148402a326.485103 326.485103 0 0 1 155.001081-208.545047zM1288.280119 374.705387a53.441588 53.441588 0 0 1-14.384182 11.978287l-1044.260914 601.934514a53.799913 53.799913 0 0 1-73.4054-19.759055L7.217686 710.660503a53.697534 53.697534 0 0 1 19.707865-73.405399L1071.442411 35.32059a53.799913 53.799913 0 0 1 73.4054 19.759054l148.80718 258.19863a53.953481 53.953481 0 0 1-5.374872 61.427113zM32.198045 665.716333a28.102904 28.102904 0 0 0-2.815409 32.146855l148.80718 258.19863a28.154093 28.154093 0 0 0 38.443134 10.237852L1261.149811 364.518724a28.154093 28.154093 0 0 0 10.237852-38.443135l-148.755991-258.249819a28.102904 28.102904 0 0 0-38.391945-10.237852L39.722866 659.420054a27.130308 27.130308 0 0 0-7.524821 6.296279z" fill="#8a8a8a" p-id="4180"></path><path d="M498.634586 598.146509L360.884286 677.64343l38.494324 66.546039c5.118926 9.162878 12.43899 11.159259 21.49949 5.937954l113.742537-65.675821a20.475704 20.475704 0 0 0 9.879527-11.05688q2.610652-9.725959-16.841267-47.09412l18.376945-4.095141q20.475704 42.998979 18.069809 55.898673a35.832482 35.832482 0 0 1-16.073428 19.34954l-122.854225 70.794747q-25.082738 14.53775-40.234759-11.72234L317.373415 639.456242l15.971049-9.214067 18.428134 31.993288 121.523305-70.180476-33.068263-57.843864-149.47264 86.305093-8.958121-15.356778 165.546068-95.877485zM653.174964 646.315603l-15.356778 8.855742-64.242522-111.285452a303.501125 303.501125 0 0 1 7.6272 77.346972l-16.022239-12.387801a263.06161 263.06161 0 0 0-11.671151-98.129812l-29.945718 17.30197-8.855742-15.356778 30.713557-17.711484-25.031549-43.306115 15.356778-8.855742 24.980359 43.510872 26.208902-15.356778 8.855742 15.356778-26.208901 15.356778 8.343849 14.435371q25.133927 8.599796 56.308187 22.83041l-1.074975 18.632891q-29.0755-16.58532-45.353685-24.161331z m27.539822-17.96743l-16.58532-8.958121a229.532644 229.532644 0 0 0 60.352138-166.313907l17.762673-0.563082a252.874947 252.874947 0 0 1-7.729578 73.814913 380.489773 380.489773 0 0 1 65.215118 18.581702l-4.86298 18.223377a350.95357 350.95357 0 0 0-64.703225-21.294733 248.728617 248.728617 0 0 1-49.346447 86.509851z m-99.255976-179.623116l55.540348-32.095666a167.593639 167.593639 0 0 0-23.342303-15.817481l14.896075-12.183044q11.978287 8.548607 24.007763 19.042405l49.295258-28.461229 8.343849 14.435371-60.864031 35.115833q0.409514 43.306114-5.630818 64.600847 26.413658-17.660295 40.285948-27.130308a195.133461 195.133461 0 0 0 0.819028-33.93848l16.892456-0.563082q4.709412 85.793201-45.71201 146.708421l-16.124617-8.446228A185.202744 185.202744 0 0 0 681.277868 486.297975q-28.051715 18.274566-48.322662 31.174259l-10.903312-11.159258 1.38211-1.689246 0.921406-1.484489q8.29266-15.971049 8.548607-64.703225l-43.101358 24.877981zM755.758242 320.240014q3.992762 14.588939 6.24509 25.133927l40.644273-23.495871 8.753363 15.356778-46.070334 26.516037a276.88271 276.88271 0 0 1 3.224923 53.799913l-17.865052-0.614271a280.005255 280.005255 0 0 0-12.285422-90.656181zM771.882859 399.276232l52.878506-30.713556 8.34385 14.48656-23.086357 13.309208L826.194664 424.870862l30.713557-17.711484 8.599795 14.896075-30.713556 17.711484L865.098502 491.775226a206.599855 206.599855 0 0 0 22.113761-31.993288l10.852123 12.694936a250.110727 250.110727 0 0 1-37.624106 47.196499l-14.58894-9.930717c3.48087-4.197519 4.453466-7.729578 2.81541-10.544988L819.028168 448.57149l-30.713556 17.711484-8.599796-14.896075 30.713556-17.711484-16.175806-27.949336-14.230615 8.190281z m85.946768-80.98141l-9.162877 13.872289A263.778259 263.778259 0 0 0 806.230853 307.135563l9.828338-14.230614a406.186782 406.186782 0 0 1 41.770436 25.59463z m-12.183044-53.799913l15.766293-9.060499 35.525346 61.427112 41.719248-24.110141 68.49123 118.656706q12.43899 21.499489-6.859361 32.709937l-22.216139 12.797315-13.053261-12.899693 21.704246-11.619963c5.630819-3.276113 6.398658-8.395039 2.405896-15.356778l-13.462776-23.342303-67.774581 39.108595 28.35885 49.090501-15.971049 9.521203-81.339735-141.026413 42.23114-24.366088z m99.972626 77.346973L931.644541 317.373415l-67.979338 38.903838 14.230614 24.673224z m-59.737867 52.878506l14.077047 24.417277L967.477023 380.02907l-14.077046-24.417277zM916.287763 240.589524a254.922517 254.922517 0 0 1 1.484488 51.854721l-16.943645 0.870218a276.422007 276.422007 0 0 0-1.484488-51.189261z" fill="#8a8a8a" p-id="4181"></path></svg>