<?xml version="1.0" standalone="no"?><!DOCTYPE svg PUBLIC "-//W3C//DTD SVG 1.1//EN" "http://www.w3.org/Graphics/SVG/1.1/DTD/svg11.dtd"><svg t="1696660639780" class="icon" viewBox="0 0 1024 1024" version="1.1" xmlns="http://www.w3.org/2000/svg" p-id="6245" xmlns:xlink="http://www.w3.org/1999/xlink" width="200" height="200"><path d="M928.69256237 137.31673525l-1.93123598-0.90881692L534.72042324 4.62946348c-14.76827511-6.13451428-31.24058197-6.13451428-46.00885708 0L97.35227572 136.40791833l-1.93123598 0.90881692c-21.0163915 9.88338412-34.53504334 31.35418409-34.53504333 54.64261791v314.90506623c0 70.88772053 17.83553225 140.86662414 53.05218829 208.00547484 29.99095869 57.25546659 71.56933323 110.76206333 123.48550035 159.04296274 89.63206972 83.38395331 202.55257327 141.66183894 274.68991707 141.66183894 71.22852688 0 183.80822408-58.39148775 273.78110013-141.88904319 52.14337136-48.39450152 93.83534802-102.01470038 124.05351094-159.04296274 35.44386027-67.13885069 53.39299463-137.11775431 53.39299464-207.77827059V191.95935316c-0.11360212-23.28843384-13.63225395-44.75923381-34.64864546-54.64261791z m-38.17031105 369.54768414c0 148.2507617-96.56179881 260.03524408-154.15807174 313.54184083C653.77544107 897.20129078 557.44084651 942.98294364 512.11360212 942.98294364c-22.49321902 0-58.39148775-11.47381374-96.10739034-30.67257138-44.64563169-22.72042324-89.29126337-54.41541368-129.05200405-91.44970358-57.25546659-53.27939251-153.36285693-164.95027278-153.36285693-313.88264718V200.93392035L511.77279577 73.58594805l378.86305766 127.3479723v305.93049904z" p-id="6246"></path><path d="M475.76092491 284.99948637v17.83553225c-35.6710645 3.86247196-66.45723799 13.29144761-90.31368242 28.0597227-34.08063487 21.0163915-52.93858617 52.48417771-52.93858615 88.49604855 0 28.74133542 12.15542643 68.27487186 69.9789036 93.26733745 24.08364864 10.33779257 51.00735019 17.26752167 90.31368241 23.51563805 75.77261154 12.95064125 81.45271734 14.20026452 100.08346442 22.49321902l0.22720423 0.11360211c17.26752167 7.27053545 25.67407827 18.74434919 25.67407826 35.10305392 0 15.79069417-7.61134179 28.05972272-23.40203595 37.37509625-18.28994071 10.90580315-45.78165285 16.69951109-79.40787924 16.69951109-41.46477242 0-75.31820306-10.22419047-92.81292896-27.94612059l-0.22720425-0.22720424c-6.3617185-6.2481164-13.06424336-26.01488462-15.56348992-37.37509625l-3.63526771-16.58590896-4.31688043 0.6816127c-11.01940527-12.83703913-30.67257139-18.97155341-49.30331844-14.31386664-12.95064125 3.29446137-23.40203594 11.24660951-28.74133542 21.92520842-4.43048254 8.97456718-4.884891 18.8579513-1.13602116 28.17332483 4.43048254 14.54107088 15.79069417 47.71288882 32.03579679 64.52600202 26.35569097 27.15090577 68.61567821 43.96401899 123.48550034 49.53052269v14.42746877c0 20.10757458 16.24510262 36.35267719 36.35267721 36.35267719s36.35267719-16.24510262 36.35267718-36.35267719v-13.40504974c43.50961051-3.06725714 78.72626654-13.06424336 105.19555964-29.65015233 34.53504334-21.6980042 52.82498406-54.41541368 52.82498406-94.51696072 0-34.64864546-13.29144761-61.11793854-40.44235338-80.77110465-24.87886345-18.06273649-62.02675546-30.55896927-116.66937338-39.41993432l-8.63376082-1.47682752c-63.6171851-10.56499682-64.41239992-10.67859893-79.40787927-15.4498878-42.48719147-13.40504971-42.48719147-31.01337773-42.48719147-37.60230048 0-27.60531425 38.96552587-47.71288882 92.69932685-47.71288882 36.4662793 0 64.63960413 8.06575025 81.45271735 23.28843384 5.79370794 5.45290158 13.40504971 22.03881055 17.04031743 32.14939888 0.56801058 2.49924657 1.47682752 4.884891 2.49924656 7.15693332l2.61284867 7.27053546 1.81763386-0.22720424c0.56801058 0.6816127 1.02241905 1.3632254 1.59042964 1.93123597 10.79220104 11.92822221 28.96853963 17.38112379 46.2360613 13.85945818 13.74585606-2.72645079 24.99246557-10.67859893 30.67257138-21.69800419 4.884891-9.31537353 5.33929945-20.10757458 1.24962329-29.76375447-0.34080635-0.79521482-0.6816127-1.59042961-1.13602116-2.38564444l-0.11360213-0.34080635c-0.6816127-1.24962327-1.24962327-2.49924657-1.70403172-3.40806349-9.31537353-22.37961689-18.74434919-38.5111174-28.05972273-47.82649093-26.24208885-26.69649732-66.45723799-43.16880417-117.35098608-48.2808994V284.88588425c0-20.10757458-16.24510262-36.35267719-36.35267719-36.35267719s-36.23907509 16.47230686-36.23907509 36.46627931z" p-id="6247"></path></svg>