<?xml version="1.0" standalone="no"?><!DOCTYPE svg PUBLIC "-//W3C//DTD SVG 1.1//EN" "http://www.w3.org/Graphics/SVG/1.1/DTD/svg11.dtd"><svg t="1683599828185" class="icon" viewBox="0 0 1024 1024" version="1.1" xmlns="http://www.w3.org/2000/svg" p-id="1741" xmlns:xlink="http://www.w3.org/1999/xlink" width="200" height="200"><path d="M64 64v896h896V64H64z m832 832H128V128h768v768z" fill="#8a8a8a" p-id="1742"></path><path d="M253.8 753.5c14 11.3 31 21.5 50.7 30.6 56 25.8 129.7 40 207.5 40s151.5-14.2 207.5-40c19.7-9.1 36.7-19.3 50.7-30.6l40.1 38.3L832 647.5l-151.1 20.6 42.5 40.6c-8.6 6-18.9 11.9-30.6 17.3-40.3 18.5-92.2 30.1-148.7 33.2V518.4h113.8v-64H544v-90.7c32.4-12.8 55.5-44.5 55.5-81.4 0-48.2-39.3-87.5-87.5-87.5s-87.5 39.2-87.5 87.5c0 36.9 23 68.6 55.5 81.4v90.7H366.2v64H480v240.8c-56.5-3.2-108.5-14.7-148.7-33.2-11.7-5.4-22-11.2-30.6-17.2l42.5-40.6L192 647.5l21.6 144.3 40.2-38.3z" fill="#8a8a8a" p-id="1743"></path></svg>