<?xml version="1.0" standalone="no"?><!DOCTYPE svg PUBLIC "-//W3C//DTD SVG 1.1//EN" "http://www.w3.org/Graphics/SVG/1.1/DTD/svg11.dtd"><svg t="1696660624387" class="icon" viewBox="0 0 1024 1024" version="1.1" xmlns="http://www.w3.org/2000/svg" p-id="5946" xmlns:xlink="http://www.w3.org/1999/xlink" width="200" height="200"><path d="M10.23999999 4.90666666v1003.52000002h1003.52000002V4.90666666H10.23999999z m931.84000001 931.84000001H81.92V76.58666667h860.16v860.16z" p-id="5947"></path><path d="M222.816 777.14666667c15.68 12.656 34.72 24.08 56.784 34.272 62.71999999 28.896 145.264 44.8 232.4 44.80000001s169.68-15.90400001 232.4-44.80000001c22.064-10.192 41.10400001-21.616 56.784-34.272l44.912 42.896L870.4 658.42666667l-169.232 23.072 47.6 45.472c-9.632 6.72-21.168 13.32799999-34.272 19.37600001-45.13600001 20.72-103.264 33.712-166.544 37.18399999V513.83466667h127.456v-71.68H547.84v-101.58400001c36.288-14.33599999 62.16-49.84 62.15999999-91.16799998 0-53.984-44.016-97.99999999-97.99999999-98.00000001s-97.99999999 43.904-97.99999999 98.00000001c0 41.328 25.76 76.83199999 62.15999999 91.16799998v101.58400001H348.704v71.68H476.16v269.696c-63.28000001-3.584-121.52-16.464-166.54400001-37.18399999-13.104-6.048-24.64-12.544-34.272-19.26400001l47.60000001-45.472L153.6 658.42666667l24.192 161.616 45.024-42.896z" p-id="5948"></path></svg>