<?xml version="1.0" standalone="no"?><!DOCTYPE svg PUBLIC "-//W3C//DTD SVG 1.1//EN" "http://www.w3.org/Graphics/SVG/1.1/DTD/svg11.dtd"><svg t="1696660633915" class="icon" viewBox="0 0 1024 1024" version="1.1" xmlns="http://www.w3.org/2000/svg" p-id="6096" xmlns:xlink="http://www.w3.org/1999/xlink" width="200" height="200"><path d="M179.0747981 927.99674941c-16.61430951 0-30.24623063-13.41924998-30.24623063-30.03355948v-73.48636894c0-73.48636895 22.15174704-144.20401912 64.32653268-204.48380923 41.11043144-59.00176631 97.98249089-104.15894032 164.86507119-130.57109954l11.07687197-4.26041218-9.37250741-7.24180209c-52.61164727-41.11043144-82.64520675-102.24190462-82.64520675-168.06013071 0-118.00453107 96.49079749-213.85631665 215.34701161-213.85631665 118.64254451 0 215.3470116 95.85178558 215.3470116 213.85631665 0 65.81822609-30.03355948 127.16336887-82.64620522 168.06013071l-9.37150894 7.24180209 11.07587351 4.26041218c66.66990915 26.41215921 123.7556382 71.56933323 164.86507121 130.57109954 41.96211451 60.27979011 64.32753114 130.99744029 64.32753113 204.48380923v73.48636894c0 16.61430951-13.63291958 30.03355948-30.24722909 30.03355948H179.0747981z m333.13787304-404.49453514c-166.99477806 0-302.89164242 135.04418287-302.89164242 300.97460672v43.45280945h605.78328486v-43.45280945c0-165.93042385-135.8958659-300.97460672-302.89164244-300.97460672z m0-367.64451587c-85.41392552 0-154.85355189 69.01328562-154.85355187 153.78819922 0 84.77591206 69.43962638 153.78919767 154.85355187 153.78919769s154.85455034-69.01328562 154.85455035-153.78919769-69.43962638-153.78819922-154.85455035-153.78819922zM31.03670754 817.66036119C14.42239804 817.66036119 0.79047691 804.24111122 0.79047691 787.84047131v-56.87205944c0-107.99301176 59.64077821-205.54916188 155.49256379-254.96574964l7.88181246-4.04774103-5.96477675-6.60279018a176.60192265 176.60192265 0 0 1-46.43419937-118.85621413c0-96.70346863 78.38479457-175.51560242 175.08926165-177.00629735-0.6390119 1.06535267-1.2780238 1.91703571-1.91703571 2.98238836-14.91094339 19.59569941-26.41315766 41.109433-34.29397166 64.11386154-47.07420974 16.61430951-78.38579303 60.27979011-78.38579301 109.91004745 0 45.79618593 27.26484072 87.54463083 69.22695521 106.5023168h0.42534229c12.56756693 4.68575447 20.66205053 15.54895684 20.66205052 27.69018302 0 12.35389733-8.73349551 23.64344044-21.72640471 28.11652376l-7.02913095 1.70436457c-101.60289271 25.56047615-172.53321404 116.08649689-172.53321404 220.24543723v26.83849996H96.64226249c-3.62140027 19.80936902-5.53843599 39.83240764-5.96377828 60.06711896H31.03670754z m902.28480825 0c-0.4253423-20.02204017-2.34237801-40.25774994-5.96377828-60.06711896h35.35832586v-26.83849996c0-104.15894032-70.93032133-194.68496107-172.53321404-220.24543723l-7.02913095-1.70436457c-12.99290923-4.47308334-21.72640473-15.76262645-21.72640471-28.11652376 0-12.14122617 8.0944836-23.00442854 20.66205052-27.69018302h0.42534229c41.96211451-18.95768596 69.22695522-60.70613085 69.22695521-106.5023168 0-49.63025735-31.31158329-93.29573797-78.38579301-109.91004745-7.880814-23.00442854-19.38302827-44.73083328-34.29397166-64.11386154-0.6390119-1.06535267-1.2780238-1.91703571-1.91703571-2.98238836 96.91713822 1.70436457 175.08926165 80.51549989 175.08926165 177.00629735 0 43.87915021-16.4006399 86.05393587-46.43419937 118.85621413l-5.96477675 6.60279018 7.88181246 4.04774103c95.85178558 49.41658775 155.49256379 146.97273788 155.49256379 254.96574964v56.87205944c0 16.61430951-13.63192113 30.03355948-30.24623063 30.03355948h-59.64177667z m0 0" p-id="6097"></path></svg>