<?xml version="1.0" standalone="no"?><!DOCTYPE svg PUBLIC "-//W3C//DTD SVG 1.1//EN" "http://www.w3.org/Graphics/SVG/1.1/DTD/svg11.dtd"><svg t="1683615235666" class="icon" viewBox="0 0 1024 1024" version="1.1" xmlns="http://www.w3.org/2000/svg" p-id="2071" xmlns:xlink="http://www.w3.org/1999/xlink" width="200" height="200"><path d="M794.0096 903.168H97.5872c-38.912 0-66.1504-20.1728-66.1504-49.152v-96.0512c0-71.2704 66.8672-115.4048 128.8192-115.4048h315.1872a25.6 25.6 0 0 1 0 51.2H160.256c-37.4784 0-77.6192 25.8048-77.6192 64.2048v94.8224c0.7168-2.56 6.9632-0.7168 14.9504-0.8192h696.4224a25.6 25.6 0 0 1 0 51.2z" fill="#707070" p-id="2072"></path><path d="M285.2864 643.6864l-1.024-0.1024c-13.7216-0.6144-24.576-10.752-24.576-24.4736 0-27.9552 28.5696-70.2464 67.6864-75.6736 2.3552-4.7104 2.3552-10.9568 2.048-22.8352l-0.2048-10.4448 0.2048-10.3424c0.512-15.9744 0.2048-21.6064-5.3248-27.136a25.6 25.6 0 0 1-7.4752-17.92c-52.5312-34.6112-84.5824-95.5392-84.5824-162.4064 0-105.0624 86.8352-190.5664 193.536-190.5664 106.8032 0 193.7408 85.9136 193.7408 191.5904 0 65.3312-32.5632 125.8496-86.016 161.3824a25.4976 25.4976 0 0 1-7.3728 17.8176c-5.4272 5.4272-5.7344 11.5712-5.3248 27.4432l0.2048 10.1376-0.2048 10.3424c-0.3072 12.9024-0.2048 19.2512 2.56 24.064a25.6 25.6 0 0 1-8.9088 49.5616h-6.5536a25.4976 25.4976 0 0 1-23.9616-16.6912c-15.36-20.0704-14.7456-41.984-14.336-58.4704l0.2048-8.9088-0.2048-8.6016c-0.4096-15.7696-1.024-36.7616 12.6976-56.1152v-4.9152a25.6 25.6 0 0 1 13.2096-22.4256 142.336 142.336 0 0 0 72.8064-124.6208c0-77.4144-63.8976-140.3904-142.5408-140.3904-78.5408 0-142.336 62.464-142.336 139.3664 0 53.5552 27.2384 101.6832 71.168 125.44a25.6 25.6 0 0 1 13.4144 22.528v4.9152c13.9264 19.3536 13.2096 40.2432 12.8 56.1152l-0.2048 8.8064 0.2048 8.9088c0.512 17.2032 1.2288 40.448-16.6912 61.2352a25.6 25.6 0 0 1-21.7088 13.824h-6.4512c-11.3664 0-24.2688 18.6368-24.8832 25.1904a26.624 26.624 0 0 1-25.6 24.3712z" fill="#707070" p-id="2073"></path><path d="M909.312 814.8992H578.56a77.824 77.824 0 0 1-60.1088-24.9856 76.0832 76.0832 0 0 1-16.1792-61.44c2.3552-17.6128 6.3488-35.0208 10.24-52.5312l4.4032-20.0704c6.2464-30.208 12.9024-60.3136 19.456-90.4192l5.3248-23.9616a77.1072 77.1072 0 0 1 76.8-62.2592c83.0464-0.2048 166.2976-0.2048 249.5488 0 37.0688 0 68.5056 25.1904 76.288 61.2352l38.4 177.8688a88.3712 88.3712 0 0 1-2.3552 47.5136c-10.8544 31.5392-36.0448 49.0496-71.0656 49.0496z m-139.4688-35.84H909.312c19.7632 0 31.232-7.7824 37.0688-25.088a51.3024 51.3024 0 0 0 1.3312-28.2624L909.312 547.9424a41.8816 41.8816 0 0 0-41.2672-32.9728c-83.1488-0.2048-166.2976-0.2048-249.5488 0a41.6768 41.6768 0 0 0-41.7792 34.0992l-5.3248 24.1664c-6.5536 29.9008-13.1072 60.0064-19.456 90.112l-4.5056 20.5824c-3.6864 16.384-7.4752 32.8704-9.728 49.4592-1.8432 13.6192 0.8192 24.9856 7.7824 32.9728 7.2704 8.2944 18.7392 12.6976 33.0752 12.6976h191.2832zM787.968 850.432H604.8768c-11.9808 0-21.7088 11.4688-21.7088 25.6 0 14.2336 9.728 25.6 21.7088 25.6H887.808c11.776 0 21.504-11.3664 21.504-25.6 0-14.1312-9.728-25.6-21.504-25.6H777.5232" fill="#707070" p-id="2074"></path><path d="M873.3696 764.5184l-92.3648-0.1024c-23.4496 0-37.7856-14.4384-38.1952-38.6048l-0.512-22.016a3606.6304 3606.6304 0 0 1-0.512-33.28c-0.2048-12.6976 2.8672-22.1184 9.5232-28.672 6.3488-6.4512 15.4624-9.6256 27.7504-9.6256l63.5904 0.1024 31.744-0.1024c22.9376 0 38.8096 13.9264 41.0624 35.4304 1.536 11.8784 3.4816 24.064 5.5296 36.2496l3.6864 23.552a31.8464 31.8464 0 0 1-6.4512 25.6 34.304 34.304 0 0 1-25.6 11.3664l-19.2512 0.1024z m-94.4128-108.7488c-3.7888 0-8.704 0.512-10.8544 2.6624-1.8432 1.8432-2.6624 6.0416-2.6624 11.8784l0.512 32.9728 0.4096 22.1184c0.3072 12.9024 5.3248 15.36 14.6432 15.36h111.2064c3.3792-0.1024 6.2464-1.2288 7.68-2.9696 1.6384-2.048 1.6384-4.8128 1.3312-6.8608l-3.6864-23.3472c-2.048-12.3904-3.9936-24.7808-5.632-37.2736-1.1264-9.8304-6.5536-14.5408-16.9984-14.5408a1715.2 1715.2 0 0 1-32.256 0.2048l-63.6928-0.2048z" fill="#707070" p-id="2075"></path><path d="M709.4272 765.952H591.9744c-9.5232 0-17.92-3.4816-23.552-9.8304s-8.192-14.9504-7.168-24.2688c2.048-15.6672 4.4032-31.232 6.7584-46.7968l3.4816-23.2448a35.2256 35.2256 0 0 1 32.5632-27.5456h109.056c7.7824 0 15.5648 3.2768 21.4016 9.0112a32.768 32.768 0 0 1 8.9088 21.9136c0 23.2448-0.4096 46.4896-1.3312 69.9392a32.3584 32.3584 0 0 1-32.6656 30.8224zM604.3648 658.0224c-3.7888 0.1024-9.0112 4.608-9.4208 7.68l-3.584 22.9376c-2.2528 15.4624-4.608 30.8224-6.656 46.1824-0.1024 1.4336-0.1024 3.9936 1.3312 5.5296 1.2288 1.3312 3.2768 2.048 6.0416 2.048h117.3504c4.7104 0 8.9088-3.7888 9.1136-8.0896 0.9216-23.2448 1.3312-46.2848 1.3312-69.12a8.4992 8.4992 0 0 0-2.2528-5.4272 8.3968 8.3968 0 0 0-4.4032-1.7408H604.3648z" fill="#707070" p-id="2076"></path><path d="M624.64 639.8976l-16.896-0.1024a29.2864 29.2864 0 0 1-23.2448-9.728 30.72 30.72 0 0 1-6.2464-25.7024c2.56-14.9504 5.0176-29.2864 6.9632-44.1344 2.6624-19.1488 15.872-31.0272 34.6112-31.0272 30.4128-0.2048 61.3376-0.2048 91.8528 0 19.7632 0 31.744 12.1856 31.744 32.5632 0 13.9264 0 27.8528-0.2048 41.7792-0.2048 23.7568-12.8 36.2496-36.2496 36.2496l-82.3296 0.1024z m41.0624-87.1424l-45.7728 0.1024c-5.12 0-9.9328 1.2288-11.1616 10.5472-2.048 14.9504-4.4032 29.7984-6.9632 44.7488-0.512 3.3792 0 5.632 0.8192 6.4512s2.56 1.6384 5.2224 1.6384h99.2256c9.9328 0 12.3904-1.6384 12.5952-12.9024 0.2048-13.824 0.2048-27.7504 0.2048-41.472 0-8.192-2.2528-8.9088-8.192-8.9088l-45.9776-0.2048z" fill="#707070" p-id="2077"></path><path d="M873.7792 638.3616h-100.5568c-20.2752 0-32.6656-12.3904-33.0752-33.3824l-0.6144-27.0336-0.4096-18.432c-0.4096-18.6368 11.5712-31.3344 29.5936-31.6416 32.6656-0.2048 64.4096-0.3072 96.4608 0 16.4864 0.3072 28.3648 11.264 31.1296 28.672 2.6624 16.0768 5.4272 32.256 7.4752 48.5376a30.0032 30.0032 0 0 1-6.5536 24.1664c-3.7888 4.1984-10.9568 9.1136-23.4496 9.1136z m-56.7296-86.9376l-48.0256 0.1024c-3.3792 0-6.3488 0.6144-6.3488 7.3728l0.512 18.3296 0.512 27.3408c0.2048 8.704 2.9696 10.24 9.5232 10.24h100.5568c3.3792 0 5.2224-0.8192 5.8368-1.4336 0.512-0.512 1.024-2.2528 0.6144-5.4272-1.9456-15.872-4.608-31.744-7.2704-47.5136-1.3312-8.704-5.7344-8.8064-8.0896-8.8064a7412.5312 7412.5312 0 0 0-47.8208-0.2048z" fill="#707070" p-id="2078"></path><path d="M763.392 856.3712a20.2752 20.2752 0 0 1-20.2752 20.3776 20.1728 20.1728 0 0 1-20.2752-20.3776v-40.5504c0-11.1616 9.0112-20.3776 20.2752-20.3776a20.48 20.48 0 0 1 20.2752 20.3776v40.5504z" fill="#707070" p-id="2079"></path></svg>