<?xml version="1.0" standalone="no"?><!DOCTYPE svg PUBLIC "-//W3C//DTD SVG 1.1//EN" "http://www.w3.org/Graphics/SVG/1.1/DTD/svg11.dtd"><svg t="1696660665535" class="icon" viewBox="0 0 1024 1024" version="1.1" xmlns="http://www.w3.org/2000/svg" p-id="6694" xmlns:xlink="http://www.w3.org/1999/xlink" width="200" height="200"><path d="M293.88393681 110.69832861h690.70086675a36.35267719 36.35267719 0 0 1 0 72.70535439H293.88393681a36.35267719 36.35267719 0 0 1 0-72.70535439zM148.47322803 37.99297422h-72.70535439a72.70535439 72.70535439 0 0 0-72.70535441 72.70535439v72.70535439a72.70535439 72.70535439 0 0 0 72.70535441 72.70535441h72.70535439a72.70535439 72.70535439 0 0 0 72.70535439-72.70535441v-72.70535439a72.70535439 72.70535439 0 0 0-72.70535439-72.70535439z m0 145.41070878h-72.70535439v-72.70535439h72.70535439v72.70535439z m145.41070878 290.82141759h254.46874038a36.35267719 36.35267719 0 0 1 0 72.70535438H293.88393681a36.35267719 36.35267719 0 0 1 0-72.70535438z m-145.41070878-72.70535441h-72.70535439a72.70535439 72.70535439 0 0 0-72.70535441 72.70535441v72.70535438a72.70535439 72.70535439 0 0 0 72.70535441 72.70535441h72.70535439a72.70535439 72.70535439 0 0 0 72.70535439-72.70535441v-72.70535438a72.70535439 72.70535439 0 0 0-72.70535439-72.70535441z m0 145.41070879h-72.70535439v-72.70535438h72.70535439v72.70535438z m145.41070878 290.82141759h254.46874038a36.35267719 36.35267719 0 0 1 0 72.70535439H293.88393681a36.35267719 36.35267719 0 0 1 0-72.70535439z m-145.41070878-72.70535441h-72.70535439a72.70535439 72.70535439 0 0 0-72.70535441 72.70535441v72.70535439a72.70535439 72.70535439 0 0 0 72.70535441 72.70535439h72.70535439a72.70535439 72.70535439 0 0 0 72.70535439-72.70535439v-72.70535439a72.70535439 72.70535439 0 0 0-72.70535439-72.70535441z m0 145.4107088h-72.70535439v-72.70535439h72.70535439v72.70535439z m545.29015797-145.4107088h290.82141756a36.35267719 36.35267719 0 0 1 0 72.70535441H693.763386a36.35267719 36.35267719 0 0 1 0-72.70535441z m0-145.41070877h290.82141756a36.35267719 36.35267719 0 0 1 0 72.7053544H693.763386a36.35267719 36.35267719 0 0 1 0-72.7053544z" p-id="6695"></path><path d="M875.52677197 946.80990414V619.63580938a36.35267719 36.35267719 0 0 0-72.70535439 0v327.17409476a36.35267719 36.35267719 0 0 0 72.70535439 0z" p-id="6696"></path><path d="M830.66756831 680.63560171l178.5643504-178.49164503A38.02490036 38.02490036 0 0 0 955.50266181 448.41469978L777.01101677 626.90634481a37.87948964 37.87948964 0 1 0 53.65655154 53.7292569z" p-id="6697"></path><path d="M847.60791589 680.63560171l-178.49164504-178.49164503A38.02490036 38.02490036 0 0 1 722.84552773 448.41469978L901.33717278 626.90634481a38.02490036 38.02490036 0 0 1-53.72925689 53.7292569z" p-id="6698"></path></svg>