<?xml version="1.0" standalone="no"?><!DOCTYPE svg PUBLIC "-//W3C//DTD SVG 1.1//EN" "http://www.w3.org/Graphics/SVG/1.1/DTD/svg11.dtd"><svg t="1696660782591" class="icon" viewBox="0 0 1024 1024" version="1.1" xmlns="http://www.w3.org/2000/svg" p-id="7593" xmlns:xlink="http://www.w3.org/1999/xlink" width="200" height="200"><path d="M594.35679128 496.07243899a36.59890756 36.59890756 0 0 0 0-73.19571838h-51.23637383l65.87593686-65.87698522a36.59890756 36.59890756 0 1 0-51.7249184-51.72491841l-71.48895752 71.00041295-71.24363686-71.48895752a36.59890756 36.59890756 0 0 0-51.96814229 51.72596678l65.87593685 65.87593686h-48.79784451a36.59890756 36.59890756 0 1 0 0 73.19571837h70.51291677v51.4816945H379.16129539a36.59890756 36.59890756 0 1 0 0 73.19571837h71.00041296v71.00041295a36.59890756 36.59890756 0 0 0 73.19571837 0V620.26025892h70.99936456a36.59890756 36.59890756 0 0 0 0-73.19571837h-70.99936456V495.82816671z m421.85299398 306.93389194l-78.07592218-133.94822752a30.00984615 30.00984615 0 0 0-26.34995539-15.12705921H755.63206334a30.25411843 30.25411843 0 0 0-26.3499554 15.1281076l-78.07592217 135.16749219a30.98588691 30.98588691 0 0 0 0 30.49839072l78.07592217 135.16854057a30.25411843 30.25411843 0 0 0 26.3499554 15.1281076h156.15184435a30.00984615 30.00984615 0 0 0 26.34995539-15.1281076l78.07592218-135.1674922a30.98588691 30.98588691 0 0 0 0-31.71870375z m-121.99356288 119.79825746H772.22370788l-60.50928523-104.42692595 60.50928523-104.67014984h121.9925145l60.26501297 104.67014984z" p-id="7594"></path><path d="M833.70693714 742.25487017a76.36811294 76.36811294 0 1 0 76.36916132 76.36706455 76.36811294 76.36811294 0 0 0-76.36811294-76.36706455z m0 91.49412377a15.3713315 15.3713315 0 1 1 15.37237988-15.12705922 15.3713315 15.3713315 0 0 1-15.3713315 14.88383532z m-432.09984939 81.00404447h-268.38499962a57.33584231 57.33584231 0 0 1-55.62698469-58.55720374V159.3719248a57.33584231 57.33584231 0 0 1 55.62698469-58.55615535h663.64481429a57.33584231 57.33584231 0 0 1 55.62698469 58.55615535v292.78392187a36.59890756 36.59890756 0 0 0 73.19781513 0V159.37087643A130.53365744 130.53365744 0 0 0 796.86690242 27.61795432H132.49031965A130.53365744 130.53365744 0 0 0 3.66656822 159.3719248v696.82600663a130.53365744 130.53365744 0 0 0 128.82479982 131.75187372h268.38499961a36.59890756 36.59890756 0 1 0 0-73.19571837z" p-id="7595"></path></svg>