<?xml version="1.0" standalone="no"?><!DOCTYPE svg PUBLIC "-//W3C//DTD SVG 1.1//EN" "http://www.w3.org/Graphics/SVG/1.1/DTD/svg11.dtd"><svg t="1696660604430" class="icon" viewBox="0 0 1024 1024" version="1.1" xmlns="http://www.w3.org/2000/svg" p-id="5647" xmlns:xlink="http://www.w3.org/1999/xlink" width="200" height="200"><path d="M899.86036989 330.83218625H713.94797037V146.79895518c0-71.03256774-57.75311063-128.66040049-128.66040048-128.66040047h-444.73653524c-71.03256774 0-128.66040049 57.75311063-128.66040048 128.66040047v856.02387193h1005.60568124V448.46813178c0-64.89395078-52.74199475-117.63594552-117.63594552-117.63594553zM271.21588148 926.77914348V771.55982878c0-7.26611804 6.01333907-13.27945711 13.2794571-13.27945711h156.72264947c7.26611804 0 13.27945711 6.01333907 13.27945711 13.27945711v155.2193147H271.21588148z m258.57357994 0.75166739V771.55982878c0-48.73310203-39.71309342-88.44619546-88.44619547-88.44619546H284.49533858c-48.73310203 0-88.44619546 39.71309342-88.44619545 88.44619546v155.97098209h-109.1170485V146.79895518c0-29.56558374 24.05335627-53.49366212 53.49366212-53.49366211h444.73653524c29.56558374 0 53.49366212 24.05335627 53.49366213 53.49366211v184.03323107h-0.1252779v596.82390251h-108.7412148z m412.54011564 0H713.94797037V405.9989246h185.91239952c23.42696679 0 42.59448507 19.04224038 42.59448508 42.59448506v478.93740121z" p-id="5648"></path><path d="M497.71831971 250.40377622H228.12028482c-20.79613094 0-37.58336918 16.78723822-37.58336918 37.58336917s16.78723822 37.58336918 37.58336918 37.58336918h269.47275699c20.79613094 0 37.58336918-16.78723822 37.58336918-37.58336918s-16.78723822-37.58336918-37.45809128-37.58336917z m0 204.7040841H228.12028482c-20.79613094 0-37.58336918 16.78723822-37.58336918 37.58336918s16.78723822 37.58336918 37.58336918 37.58336918h269.47275699c20.79613094 0 37.58336918-16.78723822 37.58336918-37.58336918 0.1252779-20.79613094-16.78723822-37.58336918-37.45809128-37.58336918z" p-id="5649"></path></svg>