<?xml version="1.0" standalone="no"?><!DOCTYPE svg PUBLIC "-//W3C//DTD SVG 1.1//EN" "http://www.w3.org/Graphics/SVG/1.1/DTD/svg11.dtd"><svg t="1696660674360" class="icon" viewBox="0 0 1024 1024" version="1.1" xmlns="http://www.w3.org/2000/svg" p-id="6846" xmlns:xlink="http://www.w3.org/1999/xlink" width="200" height="200"><path d="M279.96557319 318.46999591h42.41808932c5.38042469 26.4409442 16.4360127 50.74012106 31.44803329 72.04798984l-30.0887681 30.10263817c-15.04322822 15.04785157-15.04322822 39.4163787 0 54.46423026 15.03976071 15.04207238 39.41522286 15.04207238 54.45498355 0l31.89765418-31.87569326c18.99156995 11.77105157 39.82901277 20.81317023 62.43141982 25.41918363v42.40768677c0 21.28937538 17.22544987 38.51829277 38.5159811 38.51829277 21.28244035 0 38.51135774-17.22776155 38.51135774-38.51829277v-42.40768677c25.23656127-5.13191957 48.6653923-15.23162977 69.27860261-29.20224057l30.3118448 30.31762399c15.04669573 15.04091654 39.41522286 15.04091654 54.4653861 0 15.04207238-15.04900741 15.04207238-39.45452135 0-54.50237291l-31.06660684-31.08625609c12.78472127-19.76251373 22.29611005-41.83785876 27.14947273-65.68741473h42.42733602c21.28821954 0 38.50904606-17.21967068 38.50904606-38.51020191 0-21.28937538-17.22082652-38.51135774-38.50904606-38.51135774h-42.42733602c-4.70194794-23.13293658-13.95211738-44.51015563-26.17394568-63.82882766l31.36365714-31.36365714c15.04669573-15.04091654 15.04669573-39.41522286 0-54.45845108-15.04322822-15.04900741-39.41059951-15.04900741-54.46076274 0l-30.01248283 30.0147945c-21.02468854-14.59938652-44.9412831-25.23771711-70.85632113-30.5233631v-42.40537511c0-21.29053122-17.22891738-38.51713693-38.51135774-38.51713692-21.28937538 0-38.51598109 17.22660571-38.5159811 38.51713692v42.40537511c-24.52340938 5.00015408-47.27376367 14.79587894-67.47202822 28.1712333l-30.27370214-30.26098794c-15.00392973-15.04091654-39.41984621-15.04091654-54.45960691 0-15.04669573 15.04322822-15.04669573 39.41869037 0 54.45845107l30.27139048 30.26214378c-13.42389954 20.19248536-23.23927365 42.97173559-28.20706428 67.52866427h-42.41924515c-21.28937538 0-38.5194486 17.22198236-38.5194486 38.51135774-0.00115584 21.29284289 17.23007322 38.51251357 38.5194486 38.51251358z m231.07508149-154.04889848c63.70746469 0 115.53869658 51.82892021 115.53869657 115.53869657s-51.83238773 115.53869658-115.53869657 115.53869659c-63.7167114 0-115.53754074-51.82892021-115.53754074-115.53869659s51.82082935-115.53869658 115.53754074-115.53869657zM934.68292741 703.60322257h-38.51482526v-77.02849467c0-21.28128452-17.2231382-38.51135774-38.51135774-38.51135774H164.42109743c-21.28475203 0-38.51251357 17.23007322-38.51251359 38.51135774v77.02849467h-38.50904606c-42.54291979 0-77.02849468 34.48673072-77.02849468 77.02733884V934.67830405c0 42.54291979 34.48557489 77.02849468 77.02849468 77.02849468h154.04543097c42.54291979 0 77.03080635-34.48557489 77.03080635-77.02849468V780.62940557c0-42.54060811-34.48788656-77.02733884-77.03080635-77.02733883h-38.50789023V665.090709h616.20830815v38.51135774H780.62824973c-42.53598476 0-77.02040381 34.48673072-77.02040381 77.02733883V934.67830405c0 42.54291979 34.48441905 77.02849468 77.02040381 77.02849468h154.05467768c42.53482892 0 77.02271548-34.48557489 77.02271548-77.02849468V780.62940557c0-42.54060811-34.48788656-77.026183-77.02271548-77.026183z" p-id="6847"></path></svg>