<?xml version="1.0" encoding="UTF-8"?>
<svg width="118px" height="120px" viewBox="0 0 118 120" version="1.1" xmlns="http://www.w3.org/2000/svg" xmlns:xlink="http://www.w3.org/1999/xlink">
    <!-- Generator: Sketch 49.3 (51167) - http://www.bohemiancoding.com/sketch -->
    <title>Group</title>
    <desc>Created with Sketch.</desc>
    <defs></defs>
    <g id="Page-1" stroke="none" stroke-width="1" fill="none" fill-rule="evenodd">
        <g id="LOGOS" transform="translate(-120.000000, -186.000000)" fill="red" fill-rule="nonzero">
            <g id="Group-35" transform="translate(120.000000, 180.000000)">
                <g id="Group" transform="translate(0.000000, 6.000000)">
                    <path d="M117.773598,76.2495891 C110.68847,101.491595 87.5056698,120 60,120 C26.862915,120 0,93.137085 0,60 C0,26.862915 26.862915,0 60,0 C87.6090182,0 110.862621,18.647751 117.852779,44.0352246 L109.502126,44.0229235 C102.664551,22.7927682 82.7914611,8 60,8 C31.281193,8 8,31.281193 8,60 C8,88.718807 31.281193,112 60,112 C82.711107,112 102.532166,97.310644 109.434989,76.1837468 C109.435762,76.1813814 109.436534,76.1790168 109.437306,76.176652 L117.773598,76.2495891 Z" id="Oval-6"></path>
                    <polygon id="Combined-Shape" points="60 60 20 60 24 44 60 44 60 28 98 60"></polygon>
                    <path d="M60,98 C80.9868205,98 98,80.9868205 98,60 C98,39.0131795 80.9868205,22 60,22 C39.0131795,22 22,39.0131795 22,60 C22,80.9868205 39.0131795,98 60,98 Z M60,100 C37.90861,100 20,82.09139 20,60 C20,37.90861 37.90861,20 60,20 C82.09139,20 100,37.90861 100,60 C100,82.09139 82.09139,100 60,100 Z" id="Oval-6-Copy"></path>
                    <path d="M60,100 C82.09139,100 100,82.09139 100,60 L20,60 C20,82.09139 37.90861,100 60,100 Z M60,92 L22,60 L60,60 L60,92 Z M96,76 L60,76 L60,60 L100,60 L96,76 Z" id="Combined-Shape"></path>
                </g>
            </g>
        </g>
    </g>
</svg>