<svg xmlns="http://www.w3.org/2000/svg" viewBox="0 0 368.61 368.61"><defs><style>.cls-1{fill:#181b34;stroke:#d9d9d9;stroke-miterlimit:10;stroke-width:12px;}.cls-2{fill:#e57d21;}.cls-2,.cls-3{fill-rule:evenodd;}.cls-3{fill:#2196f2;}</style></defs><g id="Layer_2" data-name="Layer 2"><g id="图层_1" data-name="图层 1"><circle class="cls-1" cx="184.3" cy="184.3" r="178.3"/><path class="cls-2" d="M284.13,169.5c-18.94,61.47-69.72,47-178,64.45,80.16-30.56,102.17-37.53,178-64.45Z"/><path class="cls-2" d="M128.11,72.47c59.47,1.26,95.82,25.38,101.69,82.9-21.88,16-34.47,19.4-61.18,35,19.07-13.18,37.23-24.2,57.57-39.48-7.31-49.75-41.87-65.46-86.89-69.27,21.17,38.11,29.85,79.86,14.81,118.44,7.63-51.43-3.81-82.11-26-127.55Z"/><path class="cls-3" d="M48.5,270c127.49-74,182.75,4.26,260.9-79.8-24,129-143.6,30.21-260.9,79.8Z"/></g></g></svg>