<?xml version="1.0" standalone="no"?><!DOCTYPE svg PUBLIC "-//W3C//DTD SVG 1.1//EN" "http://www.w3.org/Graphics/SVG/1.1/DTD/svg11.dtd"><svg t="1696660650096" class="icon" viewBox="0 0 1024 1024" version="1.1" xmlns="http://www.w3.org/2000/svg" p-id="6395" xmlns:xlink="http://www.w3.org/1999/xlink" width="200" height="200"><path d="M1017.30221304 879.16203969c-7.27053545-18.1763386-29.08214175-27.2645079-47.25848035-18.1763386l-61.79955124 27.2645079c-18.1763386 7.27053545-38.17031106 14.54107088-58.16428351 19.99397246l118.14620088-318.08592548c12.72343702-38.17031106-7.27053545-79.97588982-45.44084649-92.69932685L839.17409478 468.37678736V275.70759822c0-39.98794493-32.71740947-72.70535439-72.70535441-72.70535439h-90.88169298v-72.7053544c0-59.98191738-49.07611421-109.0580316-109.0580316-109.05803159h-109.05803158c-59.98191738 0-109.0580316 49.07611421-109.0580316 109.05803159v72.7053544h-90.88169298c-39.98794493 0-72.70535439 32.71740947-72.70535441 72.70535439v198.12209072l-69.07008667 23.62924018c-18.1763386 7.27053545-32.71740947 19.99397246-39.98794491 38.17031106-7.27053545 18.1763386-9.0881693 38.17031106-1.81763387 56.34664964L193.91407452 913.69708303c-23.62924018-5.45290158-47.25848035-10.90580315-69.07008667-21.81160632l-69.07008667-30.89977562c-18.1763386-9.0881693-39.98794493 0-47.25848036 18.1763386-9.0881693 18.1763386 0 39.98794493 18.1763386 47.25848037L93.94421224 957.32029566c41.80557877 18.1763386 83.61115757 29.08214175 129.05200404 32.71740947h30.89977561c41.80557877 0 83.61115757-7.27053545 123.59910249-19.99397244 39.98794493-12.72343702 79.97588982-19.99397246 119.96383474-19.99397246h30.89977562c30.89977561 1.81763387 59.98191738 7.27053545 90.88169299 16.35870474l12.72343702 3.63526772c30.89977561 9.0881693 59.98191738 14.54107088 90.88169298 18.1763386h10.90580317c7.27053545 0 14.54107088 0 21.81160632 1.81763384h18.17633859c9.0881693 0 16.35870474 0 25.44687405-1.81763384h1.81763386l10.90580315-1.81763387c43.62321264-5.45290158 87.24642527-16.35870474 127.23437021-34.53504334l61.79955122-27.26450789c16.35870474-5.45290158 25.44687404-27.2645079 16.35870474-45.4408465zM421.11830702 130.29688943c0-19.99397246 16.35870474-36.35267719 36.35267719-36.35267719h109.05803158c19.99397246 0 36.35267719 16.35870474 36.35267719 36.35267719v72.7053544H421.11830702v-72.7053544z m347.16806722 788.85309518h-23.62924018c-3.63526771 0-9.0881693 0-12.723437-1.81763386-19.99397246-1.81763387-41.80557877-5.45290158-61.79955125-10.90580315L657.41070878 902.79127986c-36.35267719-10.90580315-72.70535439-18.1763386-110.87566544-21.81160631v-436.23212637L899.15601215 566.52901579 768.28637424 919.14998461zM257.53125963 275.70759822h508.93748074v163.58704739l-172.67521667-59.98191739c-23.62924018-7.27053545-47.25848035-12.72343702-70.88772055-12.723437-23.62924018 0-47.25848035 3.63526771-70.88772053 12.723437L257.53125963 444.74754718V275.70759822z m218.11606318 176.3104844v428.96159093c-49.07611421 1.81763387-98.15222843 10.90580315-145.41070881 27.2645079-18.1763386 5.45290158-38.17031106 10.90580315-56.34664964 10.90580316L141.20269258 566.52901579 475.64732281 452.01808262z" p-id="6396"></path></svg>