<?xml version="1.0" standalone="no"?><!DOCTYPE svg PUBLIC "-//W3C//DTD SVG 1.1//EN" "http://www.w3.org/Graphics/SVG/1.1/DTD/svg11.dtd"><svg t="1686279079272" class="icon" viewBox="0 0 1024 1024" version="1.1" xmlns="http://www.w3.org/2000/svg" p-id="10122" xmlns:xlink="http://www.w3.org/1999/xlink" width="200" height="200"><path d="M956.8 835.2c-6.4-16-25.6-24-41.6-16l-54.4 24c-16 6.4-33.6 12.8-51.2 17.6l104-280c11.2-33.6-6.4-70.4-40-81.6L800 473.6V304c0-35.2-28.8-64-64-64h-80v-64c0-52.8-43.2-96-96-96h-96c-52.8 0-96 43.2-96 96v64h-80c-35.2 0-64 28.8-64 64v174.4l-60.8 20.8c-16 6.4-28.8 17.6-35.2 33.6-6.4 16-8 33.6-1.6 49.6l105.6 283.2c-20.8-4.8-41.6-9.6-60.8-19.2l-60.8-27.2c-16-8-35.2 0-41.6 16-8 16 0 35.2 16 41.6L144 904c36.8 16 73.6 25.6 113.6 28.8h27.2c36.8 0 73.6-6.4 108.8-17.6 35.2-11.2 70.4-17.6 105.6-17.6h27.2c27.2 1.6 52.8 6.4 80 14.4l11.2 3.2c27.2 8 52.8 12.8 80 16h9.6c6.4 0 12.8 0 19.2 1.6h16c8 0 14.4 0 22.4-1.6h1.6l9.6-1.6c38.4-4.8 76.8-14.4 112-30.4l54.4-24c14.4-4.8 22.4-24 14.4-40zM432 176c0-17.6 14.4-32 32-32h96c17.6 0 32 14.4 32 32v64H432v-64z m305.6 694.4h-20.8c-3.2 0-8 0-11.2-1.6-17.6-1.6-36.8-4.8-54.4-9.6l-11.2-3.2c-32-9.6-64-16-97.6-19.2v-384L852.8 560l-115.2 310.4zM288 304h448v144l-152-52.8c-20.8-6.4-41.6-11.2-62.4-11.2-20.8 0-41.6 3.2-62.4 11.2L288 452.8V304z m192 155.2v377.6c-43.2 1.6-86.4 9.6-128 24-16 4.8-33.6 9.6-49.6 9.6L185.6 560 480 459.2z" fill="#707070" p-id="10123"></path></svg>