<?xml version="1.0" standalone="no"?><!DOCTYPE svg PUBLIC "-//W3C//DTD SVG 1.1//EN" "http://www.w3.org/Graphics/SVG/1.1/DTD/svg11.dtd"><svg t="1696660679905" class="icon" viewBox="0 0 1024 1024" version="1.1" xmlns="http://www.w3.org/2000/svg" p-id="6995" xmlns:xlink="http://www.w3.org/1999/xlink" width="200" height="200"><path d="M830.70032917 471.08772457H391.62547315c-12.93064676 0-24.04646589 11.11581913-24.04646588 24.04646589 0 12.93064676 11.11581913 24.04646589 24.04646588 24.0464659h439.07485602c12.93064676 0 24.04646589-11.11581913 24.0464659-24.0464659 0-14.74547439-11.11581913-24.04646589-24.0464659-24.04646589z m0 202.01299883H391.62547315c-12.93064676 0-24.04646589 11.11581913-24.04646588 24.0464659s11.11581913 24.04646589 24.04646588 24.04646589h439.07485602c12.93064676 0 24.04646589-11.11581913 24.0464659-24.04646589s-11.11581913-24.04646589-24.0464659-24.0464659zM956.71742164 206.23631957H641.73140379l-5.55790957-14.8589011c-37.09053937-103.78545421-109.34336378-129.6467477-162.99420511-131.57500203H65.63706291c-35.16228501 0-62.95183287 27.78954786-62.9518329 61.13700526v772.54943015c0 33.34745741 27.78954786 61.13700527 62.9518329 61.13700526H956.71742164c35.16228501 0 62.95183287-27.78954786 62.95183289-61.13700526v-626.11552702c0-33.34745741-27.78954786-61.13700527-62.95183289-61.13700526z m-891.08035873-57.3939233c0-48.2063585 16.67372871-40.72019461 87.11172549-40.7201946h251.92075826c107.41510942 0 135.20465729 24.04646589 155.62146793 59.32217765l14.8589011 37.09053937H65.63706291v-55.69252242z m894.71001397 677.95154075c0 70.43799679-24.04646589 72.25282439-83.36864355 72.25282441H149.00570645c-72.25282439 0-83.36864356-5.55790959-83.36864354-83.36864354V263.63024288h826.20027152c77.81073398 0 68.50974245 29.60437546 68.50974245 83.36864355v479.79505059z m-792.8528141-374.19476876h77.81073398v77.81073397h-77.81073398v-77.81073397z m0 205.64265406h77.81073398v77.81073396h-77.81073398v-77.81073396z m0 0" p-id="6996"></path></svg>