<?xml version="1.0" standalone="no"?><!DOCTYPE svg PUBLIC "-//W3C//DTD SVG 1.1//EN" "http://www.w3.org/Graphics/SVG/1.1/DTD/svg11.dtd"><svg t="1696660696107" class="icon" viewBox="0 0 1024 1024" version="1.1" xmlns="http://www.w3.org/2000/svg" p-id="7293" xmlns:xlink="http://www.w3.org/1999/xlink" width="200" height="200"><path d="M512 255.09356198H206.63751155v305.36248849h305.36248845v-305.36248849z m-101.78709854 203.57419709h-101.78829137V356.88066055h101.78829137v101.78709852z m203.57419708-203.57419709H817.36248845V356.88066055H613.78709854z m0 203.57419709H817.36248845v101.7882914H613.78709854zM206.63751155 662.24314899h610.7249769v101.78709857H206.63751155z" p-id="7294"></path><path d="M970.04373269 51.51817208H53.95626731c-30.53624885 0-50.8941457 20.35789684-50.89414568 50.89414569v814.299174C3.06212163 947.24774062 23.42001847 967.60563746 53.95626731 967.60563746h916.08746538c30.53624885 0 50.8941457-20.35789684 50.89414568-50.89414569V102.41231777C1020.93787837 71.87606892 1000.57998153 51.51817208 970.04373269 51.51817208z m-50.89414569 814.30036682H104.850413V153.30527064h814.299174v712.51326826z" p-id="7295"></path></svg>