<?xml version="1.0" standalone="no"?><!DOCTYPE svg PUBLIC "-//W3C//DTD SVG 1.1//EN" "http://www.w3.org/Graphics/SVG/1.1/DTD/svg11.dtd"><svg t="1696660825833" class="icon" viewBox="0 0 1024 1024" version="1.1" xmlns="http://www.w3.org/2000/svg" p-id="8042" xmlns:xlink="http://www.w3.org/1999/xlink" width="200" height="200"><path d="M521.97426579 1016.40558785a28.03700228 28.03700228 0 0 1-9.65617987-1.72675217 27.88931955 27.88931955 0 0 1-18.92611256 0.12496233c-198.8718647-69.92210254-332.85420058-235.95159544-387.38321638-480.11662386C65.41872085 353.21915366 82.58400061 194.39203495 83.33377458 187.72359071A27.99156145 27.99156145 0 0 1 107.57646618 163.08329171C364.48765205 130.39996286 491.31305463 7.27798928 492.5626779 6.03972621a28.0483625 28.0483625 0 0 1 39.56761709 0c1.13602117 1.13602117 128.029585 124.31479579 384.90669024 156.99812465a27.99156145 27.99156145 0 0 1 24.27677225 24.640299c0.74977397 6.66844421 17.91505372 165.43876188-22.66362219 346.96358344-54.52901579 244.16502845-188.57951296 410.19452133-387.38321637 480.11662386a27.94612059 27.94612059 0 0 1-9.29265313 1.64723069z m-384.73628706-800.89491949c-3.08997756 48.65578638-6.69116465 173.41363044 23.70876166 308.41838537 51.05279104 226.74982402 169.14219087 374.13720963 351.03053919 438.09520107a1.98803704 1.98803704 0 0 1 0.36352677 0.13632255l0.37488699-0.13632255c181.8656279-63.95799144 299.90958687-211.2999362 351.03053918-438.09520107 30.39992631-135.00475495 26.78737902-259.762599 23.70876166-308.41838537-206.75585156-31.03609815-329.76422302-115.49927158-375.09146741-152.39723895-45.37268523 36.87524693-168.36969648 121.33842036-375.12554804 152.37451852z" p-id="8043"></path><path d="M512.31808592 772.93353232A84.65629703 84.65629703 0 0 1 427.7640308 688.34539658V493.25648235a130.18802521 130.18802521 0 1 1 169.11947046 0V688.34539658a84.65629703 84.65629703 0 0 1-84.56541534 84.58813574z m0-452.86347617a74.20490234 74.20490234 0 0 0-41.0444446 136.01581377 28.00292165 28.00292165 0 0 1 12.49623278 23.29979404V688.34539658a28.58229244 28.58229244 0 1 0 57.15322469 0V479.31750269a27.96884101 27.96884101 0 0 1 12.4962328-23.28843384 74.20490234 74.20490234 0 0 0-41.05580482-136.01581377z" p-id="8044"></path></svg>