<?xml version="1.0" standalone="no"?><!DOCTYPE svg PUBLIC "-//W3C//DTD SVG 1.1//EN" "http://www.w3.org/Graphics/SVG/1.1/DTD/svg11.dtd"><svg t="1696660687201" class="icon" viewBox="0 0 1024 1024" version="1.1" xmlns="http://www.w3.org/2000/svg" p-id="7144" xmlns:xlink="http://www.w3.org/1999/xlink" width="200" height="200"><path d="M814.66812825 341.91547958c0-188.1199924-150.42084612-338.54083852-338.54083853-338.54083852S137.58645121 153.92073351 137.58645121 341.91547958c0 127.87650615 67.75826624 236.96606232 173.09043241 293.45215858-142.90606614 56.48609625-251.99562231 180.6052124-282.17998861 338.54083852-3.75739 18.78694998 7.51477999 41.33128995 30.05911997 45.08867994h7.51478c18.78694998 0 33.81650995-11.27216999 37.57389993-30.05911996 33.81650995-176.84782242 188.1199924-304.72432857 368.59995848-308.48171857h7.51477999c180.6052124 0.12524634 334.90869487-154.17823612 334.90869487-338.54083851z m-601.93387715 0C212.7342511 195.25202346 329.33858726 78.64768728 476.00204338 78.64768728s263.26779229 116.60433617 263.2677923 263.2677923c0 142.90606614-116.60433617 259.51040229-259.5104023 263.39303863h-11.27216997c-142.90606614-7.51477999-255.75301231-124.11911616-255.75301231-263.39303863z m522.90344092 338.66608485c0 22.54433996 15.02955997 37.57389995 37.57389994 37.57389994h188.1199924c22.54433996 0 37.57389995-15.02955997 37.57389995-37.57389994s-15.02955997-37.57389995-37.57389995-37.57389996H773.33683831c-18.91219631-0.12524634-37.69914628 14.90431364-37.69914629 37.57389996z m225.69389234 109.08955618H660.36464579c-22.54433996 0-37.57389995 15.02955997-37.57389994 37.57389995s15.02955997 37.57389995 37.57389994 37.57389994h300.96693857c22.54433996 0 37.57389995-15.02955997 37.57389995-37.57389994 0.12524634-22.54433996-14.90431364-37.57389995-37.57389995-37.57389995z m0 150.42084612H664.24728212c-22.54433996 0-37.57389995 15.02955997-37.57389994 37.57389995s15.02955997 37.57389995 37.57389994 37.57389993h297.20954859c22.54433996 0 37.57389995-15.02955997 37.57389993-37.57389993s-18.91219631-37.57389995-37.69914628-37.57389995z m0 0" p-id="7145"></path></svg>