<?xml version="1.0" standalone="no"?><!DOCTYPE svg PUBLIC "-//W3C//DTD SVG 1.1//EN" "http://www.w3.org/Graphics/SVG/1.1/DTD/svg11.dtd"><svg t="1685690507193" class="icon" viewBox="0 0 1024 1024" version="1.1" xmlns="http://www.w3.org/2000/svg" p-id="2681" xmlns:xlink="http://www.w3.org/1999/xlink" width="200" height="200"><path d="M346.2 514.6m-64.2 0a64.2 64.2 0 1 0 128.4 0 64.2 64.2 0 1 0-128.4 0Z" fill="#707070" p-id="2682"></path><path d="M450.1 514.6a64.2 64.2 0 1 0 128.4 0 64.2 64.2 0 1 0-128.4 0Z" fill="#707070" p-id="2683"></path><path d="M682.5 514.6m-64.2 0a64.2 64.2 0 1 0 128.4 0 64.2 64.2 0 1 0-128.4 0Z" fill="#707070" p-id="2684"></path><path d="M512 136.3c50.7 0 99.9 9.9 146.2 29.5 44.7 18.9 84.9 46 119.5 80.6 34.5 34.5 61.6 74.7 80.6 119.5 19.6 46.3 29.5 95.5 29.5 146.2s-9.9 99.9-29.5 146.2c-18.9 44.7-46 84.9-80.6 119.5-34.5 34.5-74.7 61.6-119.5 80.6-46.3 19.6-95.5 29.5-146.2 29.5s-99.9-9.9-146.2-29.5c-44.7-18.9-84.9-46-119.4-80.6-34.5-34.5-61.6-74.7-80.6-119.5-19.6-46.3-29.5-95.5-29.5-146.2s9.9-99.9 29.5-146.2c18.9-44.7 46-84.9 80.6-119.5 34.5-34.5 74.7-61.6 119.4-80.6 46.3-19.6 95.5-29.5 146.2-29.5m0-70C265.9 66.3 66.3 265.9 66.3 512S265.9 957.7 512 957.7 957.7 758.1 957.7 512 758.1 66.3 512 66.3z" fill="#707070" p-id="2685"></path></svg>