<?xml version="1.0" standalone="no"?><!DOCTYPE svg PUBLIC "-//W3C//DTD SVG 1.1//EN" "http://www.w3.org/Graphics/SVG/1.1/DTD/svg11.dtd"><svg t="1677115710995" class="icon" viewBox="0 0 1024 1024" version="1.1" xmlns="http://www.w3.org/2000/svg" p-id="5291" xmlns:xlink="http://www.w3.org/1999/xlink" width="200" height="200"><path d="M757.5552 61.44l8.9088 0.256c79.5136 4.9152 141.2608 75.264 141.2608 159.8464v263.5776l-0.3584 5.12a40.96 40.96 0 0 1-81.5616-5.12V221.5424l-0.3584-7.68c-3.3792-40.192-33.2288-70.5024-67.8912-70.5024H211.6096l-6.4512 0.3584c-33.9968 3.6864-61.7984 36.4544-61.7984 77.824v595.5584l0.3072 7.68c3.3792 40.1408 33.28 70.5024 67.9424 70.5024h404.2752l5.12 0.3072a40.96 40.96 0 0 1-5.12 81.6128H211.6096l-8.9088-0.3072C123.1872 971.9808 61.44 901.632 61.44 817.152V221.4912l0.256-9.3696C66.2016 128.768 130.816 61.44 211.6096 61.44h545.9456z m39.68 522.9568a40.96 40.96 0 0 1 40.6528 35.84l0.3072 5.12v97.9968h98.048a40.96 40.96 0 0 1 5.12 81.6128l-5.12 0.3584-98.048-0.0512v98.048a40.96 40.96 0 0 1-81.5616 5.12l-0.3584-5.12v-98.048h-97.9968a40.96 40.96 0 0 1-5.12-81.5616l5.12-0.3072 97.9968-0.0512v-97.9968a40.96 40.96 0 0 1 40.96-40.96z m-317.1328 9.4208a40.96 40.96 0 0 1 5.12 81.5616l-5.12 0.3584H271.6672a40.96 40.96 0 0 1-5.12-81.6128l5.12-0.3072h208.4352z m208.4864-269.056a40.96 40.96 0 0 1 5.12 81.6128l-5.12 0.3072H271.6672a40.96 40.96 0 0 1-5.12-81.6128l5.12-0.3072h416.9216z" fill="#8a8a8a" p-id="5292"></path></svg>