<?xml version="1.0" standalone="no"?><!DOCTYPE svg PUBLIC "-//W3C//DTD SVG 1.1//EN" "http://www.w3.org/Graphics/SVG/1.1/DTD/svg11.dtd"><svg t="1683602188229" class="icon" viewBox="0 0 1024 1024" version="1.1" xmlns="http://www.w3.org/2000/svg" p-id="1437" xmlns:xlink="http://www.w3.org/1999/xlink" width="200" height="200"><path d="M980.17613748 924.76909036L814.91740444 759.50914369l-0.07160415-0.06796325a435.58016948 435.58016948 0 0 0 68.48512-111.56533096c22.84536415-54.01501392 34.42945897-111.37115022 34.42945896-170.47491319 0-59.10497659-11.58409482-116.45989925-34.42945896-170.47491318-22.05893215-52.15330608-53.63029333-98.98363259-93.83662933-139.1899686-40.20754963-40.206336-87.03787615-71.77891082-139.19118222-93.83784296-54.01501392-22.84657778-111.37115022-34.43067259-170.47491319-34.43067259-59.10497659 0-116.45989925 11.58409482-170.47491319 34.43067259-52.15330608 22.05893215-98.98363259 53.63029333-139.18996859 93.83784296-40.20754963 40.206336-71.77891082 87.03787615-93.83784296 139.1899686-22.84657778 54.01501392-34.43067259 111.37115022-34.4306726 170.47491318 0 59.10376297 11.58409482 116.45989925 34.4306726 170.47491319 22.05893215 52.1545197 53.63029333 98.98484622 93.83784296 139.19118221 40.206336 40.206336 87.03787615 71.77891082 139.18996859 93.83662934 54.01501392 22.84536415 111.37115022 34.42945897 170.47491319 34.42945896 59.10376297 0 116.45989925-11.58409482 170.47491319-34.42945896 39.78277925-16.82576118 76.45502578-39.20387792 109.4657517-66.71079348 0.07645867 0.0776723 0.14806282 0.16019911 0.22573511 0.23665778l165.25873303 165.25994666c7.58518518 7.58518518 17.52238459 11.37535052 27.46201126 11.37535052 9.93719941 0 19.87925333-3.79259259 27.46079764-11.37413688 15.16551585-15.16551585 15.16551585-39.75607941 0-54.92159527z m-500.34794193-84.30599585c-96.97750282 0-188.15021511-37.76572682-256.72393007-106.33822815-68.57371497-68.57371497-106.33822815-159.74642725-106.33822815-256.72393007s37.76451318-188.15021511 106.33822815-256.72393008c68.57250133-68.57371497 159.74521363-106.33822815 256.72393007-106.33822814s188.15021511 37.76451318 256.72393008 106.33822814c68.57250133 68.57250133 106.33822815 159.74521363 106.33822814 256.72393008s-37.76572682 188.15021511-106.33822814 256.72393007c-68.57371497 68.57250133-159.74642725 106.33822815-256.72393008 106.33822815z" fill="#454847" p-id="1438"></path></svg>