<?xml version="1.0" standalone="no"?><!DOCTYPE svg PUBLIC "-//W3C//DTD SVG 1.1//EN" "http://www.w3.org/Graphics/SVG/1.1/DTD/svg11.dtd"><svg t="1684115293258" class="icon" viewBox="0 0 1024 1024" version="1.1" xmlns="http://www.w3.org/2000/svg" p-id="3839" xmlns:xlink="http://www.w3.org/1999/xlink" width="200" height="200"><path d="M790.415 650.844a74.115 74.115 0 0 0-52.613 21.72 74.177 74.177 0 0 0-21.698 52.592c0 41.052 33.26 74.312 74.311 74.312s74.322-33.26 74.322-74.312-33.26-74.312-74.322-74.312z m-556.36-0.266c-41.062 0-74.311 33.25-74.311 74.312s33.25 74.322 74.312 74.322 74.311-33.26 74.311-74.322c0.01-41.053-33.26-74.312-74.311-74.312z" fill="#D5D8DF" p-id="3840"></path><path d="M646.83 542.484H382.433V333.322c-1.034-9.36-8.827-16.63-18.452-16.63H215.347c-10.127 0-24.166 5.98-31.18 13.251L51.906 507.924c-2.868 9.616-3.656 26.256-3.871 36.629v161.864c0 10.403 8.304 18.718 18.452 18.718h55.87c0-61.327 49.889-111.206 111.472-111.206s111.473 49.633 111.473 111.206h333.414c0-59.238 45.978-107.57 104.182-111.216 0.645-0.072 1.28-0.103 1.874-0.154 0.45-0.02 0.87-0.051 1.321-0.051 0.45-0.03 0.901-0.03 1.331-0.03 0.88-0.032 1.762-0.032 2.755-0.032 2.6 0 4.925 0 7.27 0.277 58.194 3.891 104.192 51.968 104.192 111.217h55.603c10.384 0 18.709-8.326 18.709-18.453V542.484H646.83z m-318.198-58.992c0 10.393-8.325 18.708-18.452 18.708H134.277c-10.127 0-13.773-6.748-8.069-15.073l66.796-97.434c5.713-8.55 18.452-15.319 28.835-15.319h88.34c10.128 0 18.453 8.571 18.453 18.699v90.419z" fill="#D5D8DF" p-id="3841"></path><path d="M392.192 347.648h187.904v187.904H392.192z m196.352 0h187.904v187.904H588.544z m197.775 0h187.904v187.904H786.32z" fill="#D5D8DF" p-id="3842"></path></svg>